%TF.GenerationSoftware,KiCad,Pcbnew,9.0.7*%
%TF.CreationDate,2026-03-25T21:44:54+05:30*%
%TF.ProjectId,dropsensePCBV1,64726f70-7365-46e7-9365-50434256312e,rev?*%
%TF.SameCoordinates,Original*%
%TF.FileFunction,Soldermask,Top*%
%TF.FilePolarity,Negative*%
%FSLAX46Y46*%
G04 Gerber Fmt 4.6, Leading zero omitted, Abs format (unit mm)*
G04 Created by KiCad (PCBNEW 9.0.7) date 2026-03-25 21:44:54*
%MOMM*%
%LPD*%
G01*
G04 APERTURE LIST*
G04 Aperture macros list*
%AMRoundRect*
0 Rectangle with rounded corners*
0 $1 Rounding radius*
0 $2 $3 $4 $5 $6 $7 $8 $9 X,Y pos of 4 corners*
0 Add a 4 corners polygon primitive as box body*
4,1,4,$2,$3,$4,$5,$6,$7,$8,$9,$2,$3,0*
0 Add four circle primitives for the rounded corners*
1,1,$1+$1,$2,$3*
1,1,$1+$1,$4,$5*
1,1,$1+$1,$6,$7*
1,1,$1+$1,$8,$9*
0 Add four rect primitives between the rounded corners*
20,1,$1+$1,$2,$3,$4,$5,0*
20,1,$1+$1,$4,$5,$6,$7,0*
20,1,$1+$1,$6,$7,$8,$9,0*
20,1,$1+$1,$8,$9,$2,$3,0*%
G04 Aperture macros list end*
%ADD10C,0.600000*%
%ADD11R,3.900000X3.900000*%
%ADD12R,1.500000X0.900000*%
%ADD13R,0.900000X1.500000*%
%ADD14RoundRect,0.100000X0.130000X0.100000X-0.130000X0.100000X-0.130000X-0.100000X0.130000X-0.100000X0*%
%ADD15RoundRect,0.250000X-0.475000X0.250000X-0.475000X-0.250000X0.475000X-0.250000X0.475000X0.250000X0*%
%ADD16RoundRect,0.075000X0.350000X0.075000X-0.350000X0.075000X-0.350000X-0.075000X0.350000X-0.075000X0*%
%ADD17RoundRect,0.075000X-0.075000X0.350000X-0.075000X-0.350000X0.075000X-0.350000X0.075000X0.350000X0*%
%ADD18RoundRect,0.250000X0.475000X-0.250000X0.475000X0.250000X-0.475000X0.250000X-0.475000X-0.250000X0*%
%ADD19R,1.700000X1.700000*%
%ADD20C,1.700000*%
%ADD21R,1.200000X0.700000*%
%ADD22R,0.800000X1.000000*%
%ADD23R,1.200000X1.000000*%
%ADD24R,2.800000X1.000000*%
%ADD25R,1.900000X1.300000*%
%ADD26RoundRect,0.250000X-0.550000X0.250000X-0.550000X-0.250000X0.550000X-0.250000X0.550000X0.250000X0*%
%ADD27RoundRect,0.243750X0.243750X0.456250X-0.243750X0.456250X-0.243750X-0.456250X0.243750X-0.456250X0*%
%ADD28RoundRect,0.243750X0.456250X-0.243750X0.456250X0.243750X-0.456250X0.243750X-0.456250X-0.243750X0*%
%ADD29RoundRect,0.250000X-0.250000X-0.475000X0.250000X-0.475000X0.250000X0.475000X-0.250000X0.475000X0*%
%ADD30R,0.700000X1.825000*%
%ADD31R,1.500000X2.000000*%
%ADD32R,2.000000X1.350000*%
%ADD33O,1.700000X1.350000*%
%ADD34O,1.500000X1.100000*%
%ADD35R,2.500000X1.430000*%
%ADD36R,1.650000X0.400000*%
%ADD37RoundRect,0.150000X0.150000X-0.512500X0.150000X0.512500X-0.150000X0.512500X-0.150000X-0.512500X0*%
%ADD38R,3.300000X2.410000*%
%ADD39RoundRect,0.150000X0.150000X-0.825000X0.150000X0.825000X-0.150000X0.825000X-0.150000X-0.825000X0*%
%ADD40RoundRect,0.100000X-0.100000X0.130000X-0.100000X-0.130000X0.100000X-0.130000X0.100000X0.130000X0*%
%ADD41RoundRect,0.250000X0.550000X-0.250000X0.550000X0.250000X-0.550000X0.250000X-0.550000X-0.250000X0*%
%ADD42RoundRect,0.250000X-1.000000X-0.650000X1.000000X-0.650000X1.000000X0.650000X-1.000000X0.650000X0*%
%ADD43RoundRect,0.100000X-0.130000X-0.100000X0.130000X-0.100000X0.130000X0.100000X-0.130000X0.100000X0*%
%ADD44RoundRect,0.100000X0.100000X-0.130000X0.100000X0.130000X-0.100000X0.130000X-0.100000X-0.130000X0*%
%ADD45RoundRect,0.250000X0.250000X0.475000X-0.250000X0.475000X-0.250000X-0.475000X0.250000X-0.475000X0*%
G04 APERTURE END LIST*
D10*
%TO.C,U1*%
X112415000Y-59920000D03*
X112415000Y-58520000D03*
X111715000Y-60620000D03*
X111715000Y-59220000D03*
X111715000Y-57820000D03*
X111015000Y-59920000D03*
D11*
X111015000Y-59220000D03*
D10*
X111015000Y-58520000D03*
X110315000Y-60620000D03*
X110315000Y-59220000D03*
X110315000Y-57820000D03*
X109615000Y-59920000D03*
X109615000Y-58520000D03*
D12*
X121265000Y-51500000D03*
X121265000Y-52770000D03*
X121265000Y-54040000D03*
X121265000Y-55310000D03*
X121265000Y-56580000D03*
X121265000Y-57850000D03*
X121265000Y-59120000D03*
X121265000Y-60390000D03*
X121265000Y-61660000D03*
X121265000Y-62930000D03*
X121265000Y-64200000D03*
X121265000Y-65470000D03*
X121265000Y-66740000D03*
X121265000Y-68010000D03*
D13*
X119500000Y-69260000D03*
X118230000Y-69260000D03*
X116960000Y-69260000D03*
X115690000Y-69260000D03*
X114420000Y-69260000D03*
X113150000Y-69260000D03*
X111880000Y-69260000D03*
X110610000Y-69260000D03*
X109340000Y-69260000D03*
X108070000Y-69260000D03*
X106800000Y-69260000D03*
X105530000Y-69260000D03*
D12*
X103765000Y-68010000D03*
X103765000Y-66740000D03*
X103765000Y-65470000D03*
X103765000Y-64200000D03*
X103765000Y-62930000D03*
X103765000Y-61660000D03*
X103765000Y-60390000D03*
X103765000Y-59120000D03*
X103765000Y-57850000D03*
X103765000Y-56580000D03*
X103765000Y-55310000D03*
X103765000Y-54040000D03*
X103765000Y-52770000D03*
X103765000Y-51500000D03*
%TD*%
D14*
%TO.C,R5*%
X105525000Y-81250000D03*
X106165000Y-81250000D03*
%TD*%
D15*
%TO.C,C3*%
X108000000Y-77300000D03*
X108000000Y-79200000D03*
%TD*%
D16*
%TO.C,U2*%
X106000000Y-79250000D03*
X106000000Y-78750000D03*
X106000000Y-78250000D03*
X106000000Y-77750000D03*
X106000000Y-77250000D03*
X106000000Y-76750000D03*
D17*
X105300000Y-76050000D03*
X104800000Y-76050000D03*
X104300000Y-76050000D03*
X103800000Y-76050000D03*
X103300000Y-76050000D03*
X102800000Y-76050000D03*
D16*
X102100000Y-76750000D03*
X102100000Y-77250000D03*
X102100000Y-77750000D03*
X102100000Y-78250000D03*
X102100000Y-78750000D03*
X102100000Y-79250000D03*
D17*
X102800000Y-79950000D03*
X103300000Y-79950000D03*
X103800000Y-79950000D03*
X104300000Y-79950000D03*
X104800000Y-79950000D03*
X105300000Y-79950000D03*
%TD*%
D14*
%TO.C,R4*%
X104025000Y-81250000D03*
X104665000Y-81250000D03*
%TD*%
D18*
%TO.C,C4*%
X101500000Y-55500000D03*
X101500000Y-53600000D03*
%TD*%
D19*
%TO.C,J3*%
X107540000Y-98500000D03*
D20*
X105000000Y-98500000D03*
%TD*%
D21*
%TO.C,J1*%
X96150000Y-68450000D03*
X96150000Y-67350000D03*
X96150000Y-66250000D03*
X96150000Y-65150000D03*
X96150000Y-64050000D03*
X96150000Y-62950000D03*
X96150000Y-61850000D03*
X96150000Y-60750000D03*
X96150000Y-59800000D03*
D22*
X85650000Y-58850000D03*
D23*
X91850000Y-58850000D03*
D24*
X81500000Y-58850000D03*
D23*
X96150000Y-70000000D03*
D25*
X81050000Y-72350000D03*
%TD*%
D26*
%TO.C,SW1*%
X124700000Y-61250000D03*
X127000000Y-63000000D03*
X124700000Y-64750000D03*
%TD*%
D27*
%TO.C,D3*%
X114745000Y-88110000D03*
X116620000Y-88110000D03*
%TD*%
D28*
%TO.C,D2*%
X120000000Y-89562500D03*
X120000000Y-91437500D03*
%TD*%
D18*
%TO.C,C5*%
X99000000Y-53600000D03*
X99000000Y-55500000D03*
%TD*%
D29*
%TO.C,C1*%
X120000000Y-98500000D03*
X118100000Y-98500000D03*
%TD*%
D30*
%TO.C,J2*%
X125320000Y-87960000D03*
D31*
X124000000Y-88060000D03*
D32*
X126070000Y-88210000D03*
D33*
X127000000Y-88230000D03*
D34*
X124000000Y-88540000D03*
D35*
X127270000Y-90000000D03*
X127270000Y-91920000D03*
D34*
X124000000Y-93380000D03*
D33*
X127000000Y-93690000D03*
D32*
X126070000Y-93690000D03*
D31*
X124020000Y-93810000D03*
D30*
X125320000Y-93910000D03*
D36*
X124120000Y-89660000D03*
X124120000Y-90310000D03*
X124120000Y-90960000D03*
X124120000Y-91610000D03*
X124120000Y-92260000D03*
%TD*%
D15*
%TO.C,C7*%
X94000000Y-55500000D03*
X94000000Y-53600000D03*
%TD*%
D37*
%TO.C,U4*%
X118100000Y-93500000D03*
X120000000Y-93500000D03*
X120000000Y-95775000D03*
X119050000Y-95775000D03*
X118100000Y-95775000D03*
%TD*%
D14*
%TO.C,R2*%
X113320000Y-88500000D03*
X112680000Y-88500000D03*
%TD*%
D38*
%TO.C,U3*%
X114595000Y-92975000D03*
D39*
X112690000Y-90500000D03*
X113960000Y-90500000D03*
X115230000Y-90500000D03*
X116500000Y-90500000D03*
X116500000Y-95450000D03*
X115230000Y-95450000D03*
X113960000Y-95450000D03*
X112690000Y-95450000D03*
%TD*%
D40*
%TO.C,R3*%
X118000000Y-91335000D03*
X118000000Y-91975000D03*
%TD*%
D41*
%TO.C,SW2*%
X127000000Y-67750000D03*
X124700000Y-69500000D03*
X127000000Y-71250000D03*
%TD*%
D42*
%TO.C,D1*%
X126500000Y-97500000D03*
X122500000Y-97500000D03*
%TD*%
D18*
%TO.C,C6*%
X96500000Y-53600000D03*
X96500000Y-55500000D03*
%TD*%
D43*
%TO.C,R6*%
X101975000Y-57000000D03*
X101335000Y-57000000D03*
%TD*%
D44*
%TO.C,R1*%
X118500000Y-89525000D03*
X118500000Y-90165000D03*
%TD*%
D18*
%TO.C,C8*%
X124000000Y-56500000D03*
X124000000Y-58400000D03*
%TD*%
D45*
%TO.C,C2*%
X114550000Y-98000000D03*
X116450000Y-98000000D03*
%TD*%
M02*
