M48
; DRILL file {KiCad 9.0.7} date 2026-03-25T21:44:57+0530
; FORMAT={-:-/ absolute / metric / decimal}
; #@! TF.CreationDate,2026-03-25T21:44:57+05:30
; #@! TF.GenerationSoftware,Kicad,Pcbnew,9.0.7
; #@! TF.FileFunction,Plated,1,2,PTH
FMAT,2
METRIC
; #@! TA.AperFunction,Plated,PTH,ComponentDrill
T1C0.200
; #@! TA.AperFunction,Plated,PTH,ViaDrill
T2C0.300
; #@! TA.AperFunction,Plated,PTH,ComponentDrill
T3C0.650
; #@! TA.AperFunction,Plated,PTH,ComponentDrill
T4C0.700
; #@! TA.AperFunction,Plated,PTH,ComponentDrill
T5C1.000
%
G90
G05
T1
X109.615Y-58.52
X109.615Y-59.92
X110.315Y-57.82
X110.315Y-59.22
X110.315Y-60.62
X111.015Y-58.52
X111.015Y-59.92
X111.715Y-57.82
X111.715Y-59.22
X111.715Y-60.62
X112.415Y-58.52
X112.415Y-59.92
X113.395Y-92.275
X113.395Y-93.675
X114.595Y-92.275
X114.595Y-93.675
X115.795Y-92.275
X115.795Y-93.675
T2
X87.0Y-59.0
X91.5Y-54.5
X98.0Y-65.5
X99.0Y-55.5
X99.0Y-64.0
X99.0Y-66.5
X99.0Y-67.5
X99.5Y-61.5
X102.0Y-75.0
X102.065Y-57.015
X103.765Y-54.04
X105.5Y-73.5
X106.0Y-75.0
X108.0Y-76.0
X108.07Y-69.26
X109.34Y-69.26
X110.61Y-69.26
X111.0Y-92.5
X111.88Y-69.26
X112.69Y-90.5
X113.0Y-67.0
X113.41Y-88.482
X113.96Y-95.45
X114.595Y-92.975
X115.0Y-89.9
X116.648Y-95.63
X118.049Y-92.015
X118.088Y-91.245
X118.099Y-93.5
X120.0Y-88.0
X120.0Y-96.0
X122.0Y-93.5
X123.0Y-61.0
X124.0Y-87.665
T5
X105.0Y-98.5
X107.54Y-98.5
T3
G00X124.2Y-88.54
M15
G01X123.8Y-88.54
M16
G05
G00X124.2Y-93.38
M15
G01X123.8Y-93.38
M16
G05
T4
G00X127.25Y-88.23
M15
G01X126.75Y-88.23
M16
G05
G00X127.25Y-93.69
M15
G01X126.75Y-93.69
M16
G05
M30
