%TF.GenerationSoftware,KiCad,Pcbnew,9.0.7*%
%TF.CreationDate,2026-03-25T21:44:53+05:30*%
%TF.ProjectId,dropsensePCBV1,64726f70-7365-46e7-9365-50434256312e,rev?*%
%TF.SameCoordinates,Original*%
%TF.FileFunction,Copper,L1,Top*%
%TF.FilePolarity,Positive*%
%FSLAX46Y46*%
G04 Gerber Fmt 4.6, Leading zero omitted, Abs format (unit mm)*
G04 Created by KiCad (PCBNEW 9.0.7) date 2026-03-25 21:44:53*
%MOMM*%
%LPD*%
G01*
G04 APERTURE LIST*
G04 Aperture macros list*
%AMRoundRect*
0 Rectangle with rounded corners*
0 $1 Rounding radius*
0 $2 $3 $4 $5 $6 $7 $8 $9 X,Y pos of 4 corners*
0 Add a 4 corners polygon primitive as box body*
4,1,4,$2,$3,$4,$5,$6,$7,$8,$9,$2,$3,0*
0 Add four circle primitives for the rounded corners*
1,1,$1+$1,$2,$3*
1,1,$1+$1,$4,$5*
1,1,$1+$1,$6,$7*
1,1,$1+$1,$8,$9*
0 Add four rect primitives between the rounded corners*
20,1,$1+$1,$2,$3,$4,$5,0*
20,1,$1+$1,$4,$5,$6,$7,0*
20,1,$1+$1,$6,$7,$8,$9,0*
20,1,$1+$1,$8,$9,$2,$3,0*%
G04 Aperture macros list end*
%TA.AperFunction,NonConductor*%
%ADD10C,0.200000*%
%TD*%
%TA.AperFunction,HeatsinkPad*%
%ADD11C,0.600000*%
%TD*%
%TA.AperFunction,HeatsinkPad*%
%ADD12R,3.900000X3.900000*%
%TD*%
%TA.AperFunction,SMDPad,CuDef*%
%ADD13R,1.500000X0.900000*%
%TD*%
%TA.AperFunction,SMDPad,CuDef*%
%ADD14R,0.900000X1.500000*%
%TD*%
%TA.AperFunction,SMDPad,CuDef*%
%ADD15RoundRect,0.100000X0.130000X0.100000X-0.130000X0.100000X-0.130000X-0.100000X0.130000X-0.100000X0*%
%TD*%
%TA.AperFunction,SMDPad,CuDef*%
%ADD16RoundRect,0.250000X-0.475000X0.250000X-0.475000X-0.250000X0.475000X-0.250000X0.475000X0.250000X0*%
%TD*%
%TA.AperFunction,SMDPad,CuDef*%
%ADD17RoundRect,0.075000X0.350000X0.075000X-0.350000X0.075000X-0.350000X-0.075000X0.350000X-0.075000X0*%
%TD*%
%TA.AperFunction,SMDPad,CuDef*%
%ADD18RoundRect,0.075000X-0.075000X0.350000X-0.075000X-0.350000X0.075000X-0.350000X0.075000X0.350000X0*%
%TD*%
%TA.AperFunction,SMDPad,CuDef*%
%ADD19RoundRect,0.250000X0.475000X-0.250000X0.475000X0.250000X-0.475000X0.250000X-0.475000X-0.250000X0*%
%TD*%
%TA.AperFunction,ComponentPad*%
%ADD20R,1.700000X1.700000*%
%TD*%
%TA.AperFunction,ComponentPad*%
%ADD21C,1.700000*%
%TD*%
%TA.AperFunction,SMDPad,CuDef*%
%ADD22R,1.200000X0.700000*%
%TD*%
%TA.AperFunction,SMDPad,CuDef*%
%ADD23R,0.800000X1.000000*%
%TD*%
%TA.AperFunction,SMDPad,CuDef*%
%ADD24R,1.200000X1.000000*%
%TD*%
%TA.AperFunction,SMDPad,CuDef*%
%ADD25R,2.800000X1.000000*%
%TD*%
%TA.AperFunction,SMDPad,CuDef*%
%ADD26R,1.900000X1.300000*%
%TD*%
%TA.AperFunction,SMDPad,CuDef*%
%ADD27RoundRect,0.250000X-0.550000X0.250000X-0.550000X-0.250000X0.550000X-0.250000X0.550000X0.250000X0*%
%TD*%
%TA.AperFunction,SMDPad,CuDef*%
%ADD28RoundRect,0.243750X0.243750X0.456250X-0.243750X0.456250X-0.243750X-0.456250X0.243750X-0.456250X0*%
%TD*%
%TA.AperFunction,SMDPad,CuDef*%
%ADD29RoundRect,0.243750X0.456250X-0.243750X0.456250X0.243750X-0.456250X0.243750X-0.456250X-0.243750X0*%
%TD*%
%TA.AperFunction,SMDPad,CuDef*%
%ADD30RoundRect,0.250000X-0.250000X-0.475000X0.250000X-0.475000X0.250000X0.475000X-0.250000X0.475000X0*%
%TD*%
%TA.AperFunction,SMDPad,CuDef*%
%ADD31R,0.700000X1.825000*%
%TD*%
%TA.AperFunction,SMDPad,CuDef*%
%ADD32R,1.500000X2.000000*%
%TD*%
%TA.AperFunction,SMDPad,CuDef*%
%ADD33R,2.000000X1.350000*%
%TD*%
%TA.AperFunction,HeatsinkPad*%
%ADD34O,1.700000X1.350000*%
%TD*%
%TA.AperFunction,HeatsinkPad*%
%ADD35O,1.500000X1.100000*%
%TD*%
%TA.AperFunction,SMDPad,CuDef*%
%ADD36R,2.500000X1.430000*%
%TD*%
%TA.AperFunction,SMDPad,CuDef*%
%ADD37R,1.650000X0.400000*%
%TD*%
%TA.AperFunction,SMDPad,CuDef*%
%ADD38RoundRect,0.150000X0.150000X-0.512500X0.150000X0.512500X-0.150000X0.512500X-0.150000X-0.512500X0*%
%TD*%
%TA.AperFunction,HeatsinkPad*%
%ADD39C,0.500000*%
%TD*%
%TA.AperFunction,HeatsinkPad*%
%ADD40R,3.300000X2.410000*%
%TD*%
%TA.AperFunction,SMDPad,CuDef*%
%ADD41RoundRect,0.150000X0.150000X-0.825000X0.150000X0.825000X-0.150000X0.825000X-0.150000X-0.825000X0*%
%TD*%
%TA.AperFunction,SMDPad,CuDef*%
%ADD42RoundRect,0.100000X-0.100000X0.130000X-0.100000X-0.130000X0.100000X-0.130000X0.100000X0.130000X0*%
%TD*%
%TA.AperFunction,SMDPad,CuDef*%
%ADD43RoundRect,0.250000X0.550000X-0.250000X0.550000X0.250000X-0.550000X0.250000X-0.550000X-0.250000X0*%
%TD*%
%TA.AperFunction,SMDPad,CuDef*%
%ADD44RoundRect,0.250000X-1.000000X-0.650000X1.000000X-0.650000X1.000000X0.650000X-1.000000X0.650000X0*%
%TD*%
%TA.AperFunction,SMDPad,CuDef*%
%ADD45RoundRect,0.100000X-0.130000X-0.100000X0.130000X-0.100000X0.130000X0.100000X-0.130000X0.100000X0*%
%TD*%
%TA.AperFunction,SMDPad,CuDef*%
%ADD46RoundRect,0.100000X0.100000X-0.130000X0.100000X0.130000X-0.100000X0.130000X-0.100000X-0.130000X0*%
%TD*%
%TA.AperFunction,SMDPad,CuDef*%
%ADD47RoundRect,0.250000X0.250000X0.475000X-0.250000X0.475000X-0.250000X-0.475000X0.250000X-0.475000X0*%
%TD*%
%TA.AperFunction,ViaPad*%
%ADD48C,0.600000*%
%TD*%
%TA.AperFunction,Conductor*%
%ADD49C,0.200000*%
%TD*%
G04 APERTURE END LIST*
D10*
X79000000Y-49500000D02*
X130000000Y-49500000D01*
X130000000Y-101000000D01*
X79000000Y-101000000D01*
X79000000Y-49500000D01*
D11*
%TO.P,U1,41,GND*%
%TO.N,GND*%
X112415000Y-59920000D03*
X112415000Y-58520000D03*
X111715000Y-60620000D03*
X111715000Y-59220000D03*
X111715000Y-57820000D03*
X111015000Y-59920000D03*
D12*
X111015000Y-59220000D03*
D11*
X111015000Y-58520000D03*
X110315000Y-60620000D03*
X110315000Y-59220000D03*
X110315000Y-57820000D03*
X109615000Y-59920000D03*
X109615000Y-58520000D03*
D13*
%TO.P,U1,40,GND*%
X121265000Y-51500000D03*
%TO.P,U1,39,IO1*%
%TO.N,unconnected-(U1-IO1-Pad39)*%
X121265000Y-52770000D03*
%TO.P,U1,38,IO2*%
%TO.N,unconnected-(U1-IO2-Pad38)*%
X121265000Y-54040000D03*
%TO.P,U1,37,TXD0*%
%TO.N,unconnected-(U1-TXD0-Pad37)*%
X121265000Y-55310000D03*
%TO.P,U1,36,RXD0*%
%TO.N,unconnected-(U1-RXD0-Pad36)*%
X121265000Y-56580000D03*
%TO.P,U1,35,IO42*%
%TO.N,unconnected-(U1-IO42-Pad35)*%
X121265000Y-57850000D03*
%TO.P,U1,34,IO41*%
%TO.N,unconnected-(U1-IO41-Pad34)*%
X121265000Y-59120000D03*
%TO.P,U1,33,IO40*%
%TO.N,unconnected-(U1-IO40-Pad33)*%
X121265000Y-60390000D03*
%TO.P,U1,32,IO39*%
%TO.N,unconnected-(U1-IO39-Pad32)*%
X121265000Y-61660000D03*
%TO.P,U1,31,IO38*%
%TO.N,unconnected-(U1-IO38-Pad31)*%
X121265000Y-62930000D03*
%TO.P,U1,30,IO37*%
%TO.N,unconnected-(U1-IO37-Pad30)*%
X121265000Y-64200000D03*
%TO.P,U1,29,IO36*%
%TO.N,unconnected-(U1-IO36-Pad29)*%
X121265000Y-65470000D03*
%TO.P,U1,28,IO35*%
%TO.N,unconnected-(U1-IO35-Pad28)*%
X121265000Y-66740000D03*
%TO.P,U1,27,IO0*%
%TO.N,IO0*%
X121265000Y-68010000D03*
D14*
%TO.P,U1,26,IO45*%
%TO.N,unconnected-(U1-IO45-Pad26)*%
X119500000Y-69260000D03*
%TO.P,U1,25,IO48*%
%TO.N,unconnected-(U1-IO48-Pad25)*%
X118230000Y-69260000D03*
%TO.P,U1,24,IO47*%
%TO.N,unconnected-(U1-IO47-Pad24)*%
X116960000Y-69260000D03*
%TO.P,U1,23,IO21*%
%TO.N,unconnected-(U1-IO21-Pad23)*%
X115690000Y-69260000D03*
%TO.P,U1,22,IO14*%
%TO.N,unconnected-(U1-IO14-Pad22)*%
X114420000Y-69260000D03*
%TO.P,U1,21,IO13*%
%TO.N,MISO*%
X113150000Y-69260000D03*
%TO.P,U1,20,IO12*%
%TO.N,SCk*%
X111880000Y-69260000D03*
%TO.P,U1,19,IO11*%
%TO.N,MOSI*%
X110610000Y-69260000D03*
%TO.P,U1,18,IO10*%
%TO.N,gpio10*%
X109340000Y-69260000D03*
%TO.P,U1,17,IO9*%
%TO.N,SCL*%
X108070000Y-69260000D03*
%TO.P,U1,16,IO46*%
%TO.N,unconnected-(U1-IO46-Pad16)*%
X106800000Y-69260000D03*
%TO.P,U1,15,IO3*%
%TO.N,unconnected-(U1-IO3-Pad15)*%
X105530000Y-69260000D03*
D13*
%TO.P,U1,14,USB_D+*%
%TO.N,gpio19*%
X103765000Y-68010000D03*
%TO.P,U1,13,USB_D-*%
%TO.N,gpio20*%
X103765000Y-66740000D03*
%TO.P,U1,12,IO8*%
%TO.N,SDA*%
X103765000Y-65470000D03*
%TO.P,U1,11,IO18*%
%TO.N,unconnected-(U1-IO18-Pad11)*%
X103765000Y-64200000D03*
%TO.P,U1,10,IO17*%
%TO.N,unconnected-(U1-IO17-Pad10)*%
X103765000Y-62930000D03*
%TO.P,U1,9,IO16*%
%TO.N,unconnected-(U1-IO16-Pad9)*%
X103765000Y-61660000D03*
%TO.P,U1,8,IO15*%
%TO.N,unconnected-(U1-IO15-Pad8)*%
X103765000Y-60390000D03*
%TO.P,U1,7,IO7*%
%TO.N,unconnected-(U1-IO7-Pad7)*%
X103765000Y-59120000D03*
%TO.P,U1,6,IO6*%
%TO.N,unconnected-(U1-IO6-Pad6)*%
X103765000Y-57850000D03*
%TO.P,U1,5,IO5*%
%TO.N,unconnected-(U1-IO5-Pad5)*%
X103765000Y-56580000D03*
%TO.P,U1,4,IO4*%
%TO.N,unconnected-(U1-IO4-Pad4)*%
X103765000Y-55310000D03*
%TO.P,U1,3,EN*%
%TO.N,Net-(U1-EN)*%
X103765000Y-54040000D03*
%TO.P,U1,2,3V3*%
%TO.N,3v3*%
X103765000Y-52770000D03*
%TO.P,U1,1,GND*%
%TO.N,GND*%
X103765000Y-51500000D03*
%TD*%
D15*
%TO.P,R5,2*%
%TO.N,SDA*%
X105525000Y-81250000D03*
%TO.P,R5,1*%
%TO.N,3v3*%
X106165000Y-81250000D03*
%TD*%
D16*
%TO.P,C3,1*%
%TO.N,GND*%
X108000000Y-77300000D03*
%TO.P,C3,2*%
%TO.N,3v3*%
X108000000Y-79200000D03*
%TD*%
D17*
%TO.P,U2,1,CLKIN*%
%TO.N,unconnected-(U2-CLKIN-Pad1)*%
X106000000Y-79250000D03*
%TO.P,U2,2,NC*%
%TO.N,unconnected-(U2-NC-Pad2)*%
X106000000Y-78750000D03*
%TO.P,U2,3,NC*%
%TO.N,unconnected-(U2-NC-Pad3)*%
X106000000Y-78250000D03*
%TO.P,U2,4,NC*%
%TO.N,unconnected-(U2-NC-Pad4)*%
X106000000Y-77750000D03*
%TO.P,U2,5,NC*%
%TO.N,unconnected-(U2-NC-Pad5)*%
X106000000Y-77250000D03*
%TO.P,U2,6,AUX_DA*%
%TO.N,unconnected-(U2-AUX_DA-Pad6)*%
X106000000Y-76750000D03*
D18*
%TO.P,U2,7,AUX_CL*%
%TO.N,unconnected-(U2-AUX_CL-Pad7)*%
X105300000Y-76050000D03*
%TO.P,U2,8,VLOGIC*%
%TO.N,unconnected-(U2-VLOGIC-Pad8)*%
X104800000Y-76050000D03*
%TO.P,U2,9,AD0*%
%TO.N,GND*%
X104300000Y-76050000D03*
%TO.P,U2,10,REGOUT*%
%TO.N,unconnected-(U2-REGOUT-Pad10)*%
X103800000Y-76050000D03*
%TO.P,U2,11,FSYNC*%
%TO.N,unconnected-(U2-FSYNC-Pad11)*%
X103300000Y-76050000D03*
%TO.P,U2,12,INT*%
%TO.N,unconnected-(U2-INT-Pad12)*%
X102800000Y-76050000D03*
D17*
%TO.P,U2,13,VDD*%
%TO.N,3v3*%
X102100000Y-76750000D03*
%TO.P,U2,14,NC*%
%TO.N,unconnected-(U2-NC-Pad14)*%
X102100000Y-77250000D03*
%TO.P,U2,15,NC*%
%TO.N,unconnected-(U2-NC-Pad15)*%
X102100000Y-77750000D03*
%TO.P,U2,16,NC*%
%TO.N,unconnected-(U2-NC-Pad16)*%
X102100000Y-78250000D03*
%TO.P,U2,17,NC*%
%TO.N,unconnected-(U2-NC-Pad17)*%
X102100000Y-78750000D03*
%TO.P,U2,18,GND*%
%TO.N,GND*%
X102100000Y-79250000D03*
D18*
%TO.P,U2,19,RESV*%
%TO.N,unconnected-(U2-RESV-Pad19)*%
X102800000Y-79950000D03*
%TO.P,U2,20,CPOUT*%
%TO.N,unconnected-(U2-CPOUT-Pad20)*%
X103300000Y-79950000D03*
%TO.P,U2,21,RESV*%
%TO.N,unconnected-(U2-RESV-Pad21)*%
X103800000Y-79950000D03*
%TO.P,U2,22,RESV*%
%TO.N,unconnected-(U2-RESV-Pad22)*%
X104300000Y-79950000D03*
%TO.P,U2,23,SCL*%
%TO.N,SCL*%
X104800000Y-79950000D03*
%TO.P,U2,24,SDA*%
%TO.N,SDA*%
X105300000Y-79950000D03*
%TD*%
D15*
%TO.P,R4,2*%
%TO.N,SCL*%
X104025000Y-81250000D03*
%TO.P,R4,1*%
%TO.N,3v3*%
X104665000Y-81250000D03*
%TD*%
D19*
%TO.P,C4,1*%
%TO.N,3v3*%
X101500000Y-55500000D03*
%TO.P,C4,2*%
%TO.N,GND*%
X101500000Y-53600000D03*
%TD*%
D20*
%TO.P,J3,1,Pin_1*%
%TO.N,GND*%
X107540000Y-98500000D03*
D21*
%TO.P,J3,2,Pin_2*%
%TO.N,/+ve*%
X105000000Y-98500000D03*
%TD*%
D22*
%TO.P,J1,1,DAT2*%
%TO.N,unconnected-(J1-DAT2-Pad1)*%
X96150000Y-68450000D03*
%TO.P,J1,2,DAT3/CD*%
%TO.N,gpio10*%
X96150000Y-67350000D03*
%TO.P,J1,3,CMD*%
%TO.N,MOSI*%
X96150000Y-66250000D03*
%TO.P,J1,4,VDD*%
%TO.N,3v3*%
X96150000Y-65150000D03*
%TO.P,J1,5,CLK*%
%TO.N,SCk*%
X96150000Y-64050000D03*
%TO.P,J1,6,VSS*%
%TO.N,GND*%
X96150000Y-62950000D03*
%TO.P,J1,7,DAT0*%
%TO.N,MISO*%
X96150000Y-61850000D03*
%TO.P,J1,8,DAT1*%
%TO.N,unconnected-(J1-DAT1-Pad8)*%
X96150000Y-60750000D03*
%TO.P,J1,9,DET_B*%
%TO.N,unconnected-(J1-DET_B-Pad9)*%
X96150000Y-59800000D03*
D23*
%TO.P,J1,10,DET_A*%
%TO.N,GND*%
X85650000Y-58850000D03*
D24*
%TO.P,J1,11,SHIELD*%
%TO.N,unconnected-(J1-SHIELD-Pad11)*%
X91850000Y-58850000D03*
D25*
X81500000Y-58850000D03*
D24*
X96150000Y-70000000D03*
D26*
X81050000Y-72350000D03*
%TD*%
D27*
%TO.P,SW1,1,1*%
%TO.N,Net-(U1-EN)*%
X124700000Y-61250000D03*
%TO.P,SW1,2,2*%
%TO.N,Net-(C8-Pad1)*%
X127000000Y-63000000D03*
%TO.P,SW1,3*%
%TO.N,N/C*%
X124700000Y-64750000D03*
%TD*%
D28*
%TO.P,D3,2,A*%
%TO.N,Net-(D3-A)*%
X114745000Y-88110000D03*
%TO.P,D3,1,K*%
%TO.N,GND*%
X116620000Y-88110000D03*
%TD*%
D29*
%TO.P,D2,2,A*%
%TO.N,Net-(D2-A)*%
X120000000Y-89562500D03*
%TO.P,D2,1,K*%
%TO.N,GND*%
X120000000Y-91437500D03*
%TD*%
D19*
%TO.P,C5,2*%
%TO.N,GND*%
X99000000Y-53600000D03*
%TO.P,C5,1*%
%TO.N,3v3*%
X99000000Y-55500000D03*
%TD*%
D30*
%TO.P,C1,2*%
%TO.N,GND*%
X120000000Y-98500000D03*
%TO.P,C1,1*%
%TO.N,/+ve*%
X118100000Y-98500000D03*
%TD*%
D31*
%TO.P,J2,6,Shield*%
%TO.N,GND*%
X125320000Y-87960000D03*
D32*
X124000000Y-88060000D03*
D33*
X126070000Y-88210000D03*
D34*
X127000000Y-88230000D03*
D35*
X124000000Y-88540000D03*
D36*
X127270000Y-90000000D03*
X127270000Y-91920000D03*
D35*
X124000000Y-93380000D03*
D34*
X127000000Y-93690000D03*
D33*
X126070000Y-93690000D03*
D32*
X124020000Y-93810000D03*
D31*
X125320000Y-93910000D03*
D37*
%TO.P,J2,5,GND*%
X124120000Y-89660000D03*
%TO.P,J2,4,ID*%
%TO.N,unconnected-(J2-ID-Pad4)*%
X124120000Y-90310000D03*
%TO.P,J2,3,D+*%
%TO.N,gpio19*%
X124120000Y-90960000D03*
%TO.P,J2,2,D-*%
%TO.N,gpio20*%
X124120000Y-91610000D03*
%TO.P,J2,1,VBUS*%
%TO.N,Net-(D1-A)*%
X124120000Y-92260000D03*
%TD*%
D16*
%TO.P,C7,2*%
%TO.N,3v3*%
X94000000Y-55500000D03*
%TO.P,C7,1*%
%TO.N,GND*%
X94000000Y-53600000D03*
%TD*%
D38*
%TO.P,U4,5,V_{OUT}*%
%TO.N,3v3*%
X118100000Y-93500000D03*
%TO.P,U4,4,NC*%
%TO.N,unconnected-(U4-NC-Pad4)*%
X120000000Y-93500000D03*
%TO.P,U4,3,CE*%
%TO.N,3v3*%
X120000000Y-95775000D03*
%TO.P,U4,2,V_{SS}*%
%TO.N,GND*%
X119050000Y-95775000D03*
%TO.P,U4,1,V_{IN}*%
%TO.N,Net-(D1-K)*%
X118100000Y-95775000D03*
%TD*%
D15*
%TO.P,R2,1*%
%TO.N,Net-(U3-~{STDBY})*%
X113320000Y-88500000D03*
%TO.P,R2,2*%
%TO.N,Net-(D3-A)*%
X112680000Y-88500000D03*
%TD*%
D39*
%TO.P,U3,9,EPAD*%
%TO.N,GND*%
X115795000Y-92275000D03*
X114595000Y-92275000D03*
X113395000Y-92275000D03*
D40*
X114595000Y-92975000D03*
D39*
X115795000Y-93675000D03*
X114595000Y-93675000D03*
X113395000Y-93675000D03*
D41*
%TO.P,U3,8,CE*%
%TO.N,3v3*%
X112690000Y-90500000D03*
%TO.P,U3,7,~{CHRG}*%
%TO.N,Net-(U3-~{CHRG})*%
X113960000Y-90500000D03*
%TO.P,U3,6,~{STDBY}*%
%TO.N,Net-(U3-~{STDBY})*%
X115230000Y-90500000D03*
%TO.P,U3,5,BAT*%
%TO.N,/+ve*%
X116500000Y-90500000D03*
%TO.P,U3,4,V_{CC}*%
%TO.N,3v3*%
X116500000Y-95450000D03*
%TO.P,U3,3,GND*%
%TO.N,GND*%
X115230000Y-95450000D03*
%TO.P,U3,2,PROG*%
%TO.N,Net-(U3-PROG)*%
X113960000Y-95450000D03*
%TO.P,U3,1,TEMP*%
%TO.N,GND*%
X112690000Y-95450000D03*
%TD*%
D42*
%TO.P,R3,1*%
%TO.N,Net-(U3-PROG)*%
X118000000Y-91335000D03*
%TO.P,R3,2*%
%TO.N,GND*%
X118000000Y-91975000D03*
%TD*%
D43*
%TO.P,SW2,3*%
%TO.N,N/C*%
X127000000Y-67750000D03*
%TO.P,SW2,2,2*%
%TO.N,GND*%
X124700000Y-69500000D03*
%TO.P,SW2,1,1*%
%TO.N,IO0*%
X127000000Y-71250000D03*
%TD*%
D44*
%TO.P,D1,2,A*%
%TO.N,Net-(D1-A)*%
X126500000Y-97500000D03*
%TO.P,D1,1,K*%
%TO.N,Net-(D1-K)*%
X122500000Y-97500000D03*
%TD*%
D19*
%TO.P,C6,2*%
%TO.N,GND*%
X96500000Y-53600000D03*
%TO.P,C6,1*%
%TO.N,3v3*%
X96500000Y-55500000D03*
%TD*%
D45*
%TO.P,R6,2*%
%TO.N,Net-(U1-EN)*%
X101975000Y-57000000D03*
%TO.P,R6,1*%
%TO.N,3v3*%
X101335000Y-57000000D03*
%TD*%
D46*
%TO.P,R1,2*%
%TO.N,Net-(D2-A)*%
X118500000Y-89525000D03*
%TO.P,R1,1*%
%TO.N,Net-(U3-~{CHRG})*%
X118500000Y-90165000D03*
%TD*%
D19*
%TO.P,C8,2*%
%TO.N,GND*%
X124000000Y-56500000D03*
%TO.P,C8,1*%
%TO.N,Net-(C8-Pad1)*%
X124000000Y-58400000D03*
%TD*%
D47*
%TO.P,C2,2*%
%TO.N,GND*%
X114550000Y-98000000D03*
%TO.P,C2,1*%
%TO.N,3v3*%
X116450000Y-98000000D03*
%TD*%
D48*
%TO.N,GND*%
X91500000Y-54500000D03*
X87000000Y-59000000D03*
%TO.N,Net-(U3-PROG)*%
X118087730Y-91245000D03*
%TO.N,GND*%
X118049000Y-92015000D03*
%TO.N,3v3*%
X116647705Y-95630114D03*
%TO.N,GND*%
X120000000Y-88000000D03*
X124000000Y-87665000D03*
X111000000Y-92500000D03*
X102000000Y-75000000D03*
%TO.N,MOSI*%
X110610000Y-69260000D03*
%TO.N,GND*%
X122000000Y-93500000D03*
X114595000Y-92975000D03*
X106000000Y-75000000D03*
X108000000Y-76000000D03*
%TO.N,gpio10*%
X109340000Y-69260000D03*
X99000000Y-67500000D03*
%TO.N,MOSI*%
X99000000Y-66500000D03*
%TO.N,3v3*%
X99000000Y-55500000D03*
X98000000Y-65500000D03*
%TO.N,SCk*%
X111880000Y-69260000D03*
X99000000Y-64000000D03*
%TO.N,MISO*%
X99500000Y-61500000D03*
X113000000Y-67000000D03*
%TO.N,Net-(U1-EN)*%
X102065000Y-57015087D03*
X103765000Y-54040000D03*
X123000000Y-61000000D03*
%TO.N,SCL*%
X108070000Y-69260000D03*
X105500000Y-73500000D03*
%TO.N,Net-(U3-~{STDBY})*%
X115000000Y-89900000D03*
X113410000Y-88482042D03*
%TO.N,3v3*%
X120000000Y-96000000D03*
X112690000Y-90500000D03*
X118099000Y-93500000D03*
%TO.N,Net-(U3-PROG)*%
X113960000Y-95450000D03*
%TD*%
D49*
%TO.N,GND*%
X91500000Y-54500000D02*
X92400000Y-53600000D01*
X92400000Y-53600000D02*
X94000000Y-53600000D01*
X93900000Y-53500000D02*
X94000000Y-53600000D01*
X86850000Y-58850000D02*
X87000000Y-59000000D01*
X85650000Y-58850000D02*
X86850000Y-58850000D01*
%TO.N,unconnected-(J1-SHIELD-Pad11)*%
X91099000Y-58099000D02*
X91850000Y-58850000D01*
X82251000Y-58099000D02*
X91099000Y-58099000D01*
X81500000Y-58850000D02*
X82251000Y-58099000D01*
%TO.N,Net-(U3-PROG)*%
X118000000Y-91335000D02*
X118000000Y-91332730D01*
%TO.N,GND*%
X118000000Y-91975000D02*
X118009000Y-91975000D01*
X118009000Y-91975000D02*
X118049000Y-92015000D01*
X114595000Y-92275000D02*
X113395000Y-92275000D01*
X115295000Y-93675000D02*
X114595000Y-92975000D01*
X115795000Y-93675000D02*
X115295000Y-93675000D01*
X119890000Y-88110000D02*
X120000000Y-88000000D01*
X116620000Y-88110000D02*
X119890000Y-88110000D01*
X112175000Y-93675000D02*
X111000000Y-92500000D01*
X114595000Y-93675000D02*
X112175000Y-93675000D01*
%TO.N,unconnected-(J1-SHIELD-Pad11)*%
X87892836Y-72350000D02*
X91850000Y-68392836D01*
X91850000Y-68392836D02*
X91850000Y-65700000D01*
X81050000Y-72350000D02*
X87892836Y-72350000D01*
X96150000Y-70000000D02*
X91850000Y-65700000D01*
X91850000Y-65700000D02*
X91850000Y-58850000D01*
%TO.N,3v3*%
X101554612Y-68054612D02*
X101554612Y-72949000D01*
X99000000Y-65500000D02*
X101554612Y-68054612D01*
X98000000Y-65500000D02*
X99000000Y-65500000D01*
%TO.N,GND*%
X101424000Y-75576000D02*
X102000000Y-75000000D01*
X101424000Y-79424000D02*
X101424000Y-75576000D01*
X102000000Y-80000000D02*
X101424000Y-79424000D01*
X102100000Y-79900000D02*
X102000000Y-80000000D01*
X102100000Y-79250000D02*
X102100000Y-79900000D01*
%TO.N,3v3*%
X104665000Y-81665000D02*
X104665000Y-81250000D01*
X104629000Y-81701000D02*
X104665000Y-81665000D01*
X101204611Y-81701000D02*
X104629000Y-81701000D01*
X100149000Y-80645389D02*
X101204611Y-81701000D01*
X100149000Y-74354612D02*
X100149000Y-80645389D01*
X101554612Y-72949000D02*
X100149000Y-74354612D01*
X105728232Y-72949000D02*
X101554612Y-72949000D01*
X106051000Y-73271768D02*
X105728232Y-72949000D01*
X106051000Y-73728232D02*
X106051000Y-73271768D01*
X105728232Y-74051000D02*
X106051000Y-73728232D01*
X103889776Y-74051000D02*
X105728232Y-74051000D01*
X102100000Y-75840776D02*
X103889776Y-74051000D01*
X102100000Y-76750000D02*
X102100000Y-75840776D01*
%TO.N,GND*%
X122000000Y-93437500D02*
X122000000Y-93500000D01*
X120000000Y-91437500D02*
X122000000Y-93437500D01*
X114595000Y-94815000D02*
X115230000Y-95450000D01*
X114595000Y-93675000D02*
X114595000Y-94815000D01*
X112690000Y-94880000D02*
X112690000Y-95450000D01*
X114595000Y-92975000D02*
X112690000Y-94880000D01*
X114595000Y-92975000D02*
X114595000Y-93675000D01*
%TO.N,MOSI*%
X110500000Y-69150000D02*
X110610000Y-69260000D01*
%TO.N,GND*%
X126930000Y-89660000D02*
X127270000Y-90000000D01*
X124120000Y-89660000D02*
X126930000Y-89660000D01*
X125570000Y-88210000D02*
X126070000Y-88210000D01*
X124120000Y-89660000D02*
X125570000Y-88210000D01*
X124120000Y-88180000D02*
X124000000Y-88060000D01*
X124120000Y-89660000D02*
X124120000Y-88180000D01*
X108000000Y-76000000D02*
X108000000Y-77300000D01*
X104925001Y-75000000D02*
X106000000Y-75000000D01*
X104300000Y-75625001D02*
X104925001Y-75000000D01*
X104300000Y-76050000D02*
X104300000Y-75625001D01*
X104300000Y-76050000D02*
X104300000Y-75200000D01*
%TO.N,Net-(U1-EN)*%
X104460000Y-54040000D02*
X104500000Y-54000000D01*
%TO.N,GND*%
X125175448Y-93810000D02*
X124020000Y-93810000D01*
X128001000Y-96635552D02*
X125175448Y-93810000D01*
X128001000Y-98364448D02*
X128001000Y-96635552D01*
X127714448Y-98651000D02*
X128001000Y-98364448D01*
X120651000Y-98651000D02*
X127714448Y-98651000D01*
X120000000Y-98000000D02*
X120651000Y-98651000D01*
%TO.N,MOSI*%
X110610000Y-69890000D02*
X110610000Y-69260000D01*
X110610000Y-69890000D02*
X110500000Y-70000000D01*
%TO.N,GND*%
X114050000Y-98500000D02*
X114550000Y-98000000D01*
X107540000Y-98500000D02*
X114050000Y-98500000D01*
X112500000Y-98000000D02*
X112690000Y-97810000D01*
X112690000Y-97810000D02*
X112690000Y-95450000D01*
X114550000Y-98000000D02*
X112500000Y-98000000D01*
X125950000Y-93810000D02*
X126070000Y-93690000D01*
X124020000Y-93810000D02*
X125950000Y-93810000D01*
X127270000Y-89410000D02*
X126070000Y-88210000D01*
X127270000Y-90000000D02*
X127270000Y-89410000D01*
X127270000Y-93420000D02*
X127000000Y-93690000D01*
X127270000Y-91920000D02*
X127270000Y-93420000D01*
X127270000Y-91920000D02*
X127270000Y-90000000D01*
X115230000Y-94240000D02*
X115795000Y-93675000D01*
X115230000Y-95450000D02*
X115230000Y-94240000D01*
X119050000Y-95050000D02*
X119000000Y-95000000D01*
X119050000Y-95775000D02*
X119050000Y-95050000D01*
%TO.N,Net-(U3-PROG)*%
X113960000Y-95450000D02*
X113960000Y-96040000D01*
%TO.N,gpio10*%
X98850000Y-67350000D02*
X99000000Y-67500000D01*
X96150000Y-67350000D02*
X98850000Y-67350000D01*
%TO.N,MOSI*%
X96150000Y-66250000D02*
X98750000Y-66250000D01*
X98750000Y-66250000D02*
X99000000Y-66500000D01*
%TO.N,3v3*%
X97650000Y-65150000D02*
X98000000Y-65500000D01*
X96150000Y-65150000D02*
X97650000Y-65150000D01*
%TO.N,SCk*%
X98950000Y-64050000D02*
X99000000Y-64000000D01*
X96150000Y-64050000D02*
X98950000Y-64050000D01*
%TO.N,MISO*%
X98650000Y-61850000D02*
X96150000Y-61850000D01*
X99500000Y-61500000D02*
X99000000Y-61500000D01*
X99000000Y-61500000D02*
X98650000Y-61850000D01*
X113150000Y-69260000D02*
X113150000Y-67150000D01*
X113150000Y-67150000D02*
X113000000Y-67000000D01*
%TO.N,Net-(U1-EN)*%
X102049913Y-57000000D02*
X102065000Y-57015087D01*
X101975000Y-57000000D02*
X102049913Y-57000000D01*
%TO.N,3v3*%
X102526000Y-53059000D02*
X102526000Y-54474000D01*
X102526000Y-54474000D02*
X101500000Y-55500000D01*
X102815000Y-52770000D02*
X102526000Y-53059000D01*
X103765000Y-52770000D02*
X102815000Y-52770000D01*
X101335000Y-55665000D02*
X101335000Y-57000000D01*
X101500000Y-55500000D02*
X101335000Y-55665000D01*
X101500000Y-55500000D02*
X94000000Y-55500000D01*
%TO.N,Net-(U1-EN)*%
X123250000Y-61250000D02*
X123000000Y-61000000D01*
X124700000Y-61250000D02*
X123250000Y-61250000D01*
%TO.N,IO0*%
X124505000Y-71250000D02*
X121265000Y-68010000D01*
X127000000Y-71250000D02*
X124505000Y-71250000D01*
%TO.N,Net-(C8-Pad1)*%
X127000000Y-61400000D02*
X127000000Y-63000000D01*
X124000000Y-58400000D02*
X127000000Y-61400000D01*
%TO.N,GND*%
X115230000Y-93610000D02*
X114595000Y-92975000D01*
X115230000Y-95450000D02*
X115230000Y-93610000D01*
%TO.N,Net-(D3-A)*%
X112680000Y-88300001D02*
X112680000Y-88500000D01*
X113098959Y-87881042D02*
X112680000Y-88300001D01*
X114516042Y-87881042D02*
X113098959Y-87881042D01*
X114745000Y-88110000D02*
X114516042Y-87881042D01*
%TO.N,SCL*%
X101500000Y-73500000D02*
X105500000Y-73500000D01*
X100500000Y-80500000D02*
X100500000Y-74500000D01*
X101250000Y-81250000D02*
X100500000Y-80500000D01*
X100500000Y-74500000D02*
X101500000Y-73500000D01*
X104025000Y-81250000D02*
X101250000Y-81250000D01*
%TO.N,SDA*%
X102530000Y-65470000D02*
X103765000Y-65470000D01*
X102000000Y-66000000D02*
X102530000Y-65470000D01*
X103500000Y-72000000D02*
X102000000Y-70500000D01*
X106500000Y-72000000D02*
X103500000Y-72000000D01*
X106726000Y-72226000D02*
X106500000Y-72000000D01*
X106726000Y-79482824D02*
X106726000Y-72226000D01*
X106258824Y-79950000D02*
X106726000Y-79482824D01*
X105300000Y-79950000D02*
X106258824Y-79950000D01*
X102000000Y-70500000D02*
X102000000Y-66000000D01*
%TO.N,3v3*%
X107250000Y-85060000D02*
X112690000Y-90500000D01*
X107250000Y-81250000D02*
X107250000Y-85060000D01*
%TO.N,SCL*%
X104800000Y-80408824D02*
X104800000Y-79950000D01*
X104532824Y-80676000D02*
X104800000Y-80408824D01*
X104025000Y-80975000D02*
X104324000Y-80676000D01*
X104324000Y-80676000D02*
X104532824Y-80676000D01*
X104025000Y-81250000D02*
X104025000Y-80975000D01*
%TO.N,SDA*%
X105525000Y-80175000D02*
X105300000Y-79950000D01*
X105525000Y-81250000D02*
X105525000Y-80175000D01*
%TO.N,3v3*%
X106165000Y-81835000D02*
X106165000Y-81250000D01*
X106000000Y-82000000D02*
X106165000Y-81835000D01*
X105000000Y-82000000D02*
X106000000Y-82000000D01*
X104665000Y-81665000D02*
X105000000Y-82000000D01*
X107250000Y-81250000D02*
X106165000Y-81250000D01*
X108000000Y-79200000D02*
X108000000Y-80500000D01*
X108000000Y-80500000D02*
X107250000Y-81250000D01*
%TO.N,GND*%
X107540000Y-98500000D02*
X109070000Y-98500000D01*
X109070000Y-98500000D02*
X114595000Y-92975000D01*
%TO.N,/+ve*%
X116449000Y-99651000D02*
X118100000Y-98000000D01*
X106151000Y-99651000D02*
X116449000Y-99651000D01*
X105000000Y-98500000D02*
X106151000Y-99651000D01*
%TO.N,Net-(U3-~{STDBY})*%
X115230000Y-90130000D02*
X115000000Y-89900000D01*
X115230000Y-90500000D02*
X115230000Y-90130000D01*
%TO.N,gpio19*%
X103765000Y-69735000D02*
X103765000Y-68010000D01*
X103500000Y-70000000D02*
X103765000Y-69735000D01*
X115500000Y-71000000D02*
X104500000Y-71000000D01*
X122000000Y-90000000D02*
X122000000Y-77500000D01*
X104500000Y-71000000D02*
X103500000Y-70000000D01*
X123000000Y-91000000D02*
X122000000Y-90000000D01*
X123040000Y-90960000D02*
X123000000Y-91000000D01*
X124120000Y-90960000D02*
X123040000Y-90960000D01*
X122000000Y-77500000D02*
X115500000Y-71000000D01*
%TO.N,gpio20*%
X102815000Y-66740000D02*
X103765000Y-66740000D01*
X102714000Y-66841000D02*
X102815000Y-66740000D01*
X102714000Y-70214000D02*
X102714000Y-66841000D01*
X104000000Y-71500000D02*
X102714000Y-70214000D01*
X115000000Y-71500000D02*
X104000000Y-71500000D01*
X121500000Y-78000000D02*
X115000000Y-71500000D01*
X121500000Y-90500000D02*
X121500000Y-78000000D01*
X122610000Y-91610000D02*
X121500000Y-90500000D01*
X124120000Y-91610000D02*
X122610000Y-91610000D01*
%TO.N,3v3*%
X120000000Y-95775000D02*
X120000000Y-96000000D01*
X118100000Y-93500000D02*
X118099000Y-93500000D01*
%TO.N,Net-(U3-~{CHRG})*%
X113960000Y-89525001D02*
X113960000Y-90500000D01*
X114261001Y-89224000D02*
X113960000Y-89525001D01*
X116840968Y-89224000D02*
X114261001Y-89224000D01*
X117781968Y-90165000D02*
X116840968Y-89224000D01*
X118500000Y-90165000D02*
X117781968Y-90165000D01*
%TO.N,Net-(D2-A)*%
X118537500Y-89562500D02*
X118500000Y-89525000D01*
X120000000Y-89562500D02*
X118537500Y-89562500D01*
%TO.N,Net-(U3-PROG)*%
X118000000Y-91332730D02*
X118087730Y-91245000D01*
%TO.N,GND*%
X119462500Y-91975000D02*
X120000000Y-91437500D01*
X118000000Y-91975000D02*
X119462500Y-91975000D01*
%TO.N,3v3*%
X116450000Y-95500000D02*
X116500000Y-95450000D01*
X116450000Y-98000000D02*
X116450000Y-95500000D01*
%TO.N,/+ve*%
X117499000Y-91499000D02*
X116500000Y-90500000D01*
X118100000Y-98000000D02*
X117499000Y-97399000D01*
X117499000Y-97399000D02*
X117499000Y-91499000D01*
%TO.N,Net-(D1-K)*%
X118100000Y-96437499D02*
X118100000Y-95775000D01*
X118401001Y-96738500D02*
X118100000Y-96437499D01*
X121738500Y-96738500D02*
X118401001Y-96738500D01*
X122500000Y-97500000D02*
X121738500Y-96738500D01*
%TO.N,Net-(D1-A)*%
X122949000Y-92529000D02*
X123218000Y-92260000D01*
X125250000Y-97500000D02*
X122949000Y-95199000D01*
X122949000Y-95199000D02*
X122949000Y-92529000D01*
X123218000Y-92260000D02*
X124120000Y-92260000D01*
X126500000Y-97500000D02*
X125250000Y-97500000D01*
%TO.N,GND*%
X124120000Y-88660000D02*
X124000000Y-88540000D01*
X124120000Y-89660000D02*
X124120000Y-88660000D01*
%TD*%
%TA.AperFunction,Conductor*%
%TO.N,GND*%
G36*
X100005703Y-67355384D02*
G01*
X100012181Y-67361416D01*
X100917793Y-68267028D01*
X100951278Y-68328351D01*
X100954112Y-68354709D01*
X100954112Y-72648902D01*
X100934427Y-72715941D01*
X100917793Y-72736583D01*
X99668481Y-73985894D01*
X99668475Y-73985902D01*
X99625941Y-74059575D01*
X99625941Y-74059577D01*
X99589423Y-74122826D01*
X99589423Y-74122827D01*
X99548499Y-74275555D01*
X99548499Y-74275557D01*
X99548499Y-74443658D01*
X99548500Y-74443671D01*
X99548500Y-80558719D01*
X99548499Y-80558737D01*
X99548499Y-80724443D01*
X99548498Y-80724443D01*
X99589423Y-80877174D01*
X99618358Y-80927289D01*
X99618359Y-80927293D01*
X99618360Y-80927293D01*
X99668479Y-81014103D01*
X99668481Y-81014106D01*
X99787349Y-81132974D01*
X99787355Y-81132979D01*
X100719750Y-82065374D01*
X100719760Y-82065385D01*
X100724090Y-82069715D01*
X100724091Y-82069716D01*
X100835895Y-82181520D01*
X100835897Y-82181521D01*
X100835901Y-82181524D01*
X100972820Y-82260573D01*
X100972827Y-82260577D01*
X101084630Y-82290534D01*
X101125553Y-82301500D01*
X101125554Y-82301500D01*
X104400902Y-82301500D01*
X104467941Y-82321185D01*
X104488583Y-82337819D01*
X104631284Y-82480520D01*
X104631286Y-82480521D01*
X104631290Y-82480524D01*
X104663462Y-82499098D01*
X104768216Y-82559577D01*
X104920943Y-82600501D01*
X104920945Y-82600501D01*
X105086654Y-82600501D01*
X105086670Y-82600500D01*
X105913331Y-82600500D01*
X105913347Y-82600501D01*
X105920943Y-82600501D01*
X106079054Y-82600501D01*
X106079057Y-82600501D01*
X106231785Y-82559577D01*
X106281904Y-82530639D01*
X106368716Y-82480520D01*
X106443631Y-82405604D01*
X106450156Y-82400613D01*
X106475400Y-82390895D01*
X106499141Y-82377932D01*
X106507520Y-82378531D01*
X106515361Y-82375513D01*
X106541853Y-82380986D01*
X106568833Y-82382916D01*
X106575557Y-82387949D01*
X106583786Y-82389650D01*
X106603113Y-82408577D01*
X106624767Y-82424787D01*
X106627702Y-82432657D01*
X106633705Y-82438536D01*
X106639731Y-82464907D01*
X106649184Y-82490251D01*
X106649500Y-82499098D01*
X106649500Y-84973330D01*
X106649499Y-84973348D01*
X106649499Y-85139054D01*
X106649498Y-85139054D01*
X106690423Y-85291785D01*
X106719358Y-85341900D01*
X106719359Y-85341904D01*
X106719360Y-85341904D01*
X106769479Y-85428714D01*
X106769481Y-85428717D01*
X106888349Y-85547585D01*
X106888355Y-85547590D01*
X111853181Y-90512416D01*
X111886666Y-90573739D01*
X111889500Y-90600097D01*
X111889500Y-91390701D01*
X111892401Y-91427567D01*
X111892402Y-91427573D01*
X111938254Y-91585393D01*
X111938255Y-91585396D01*
X112021917Y-91726862D01*
X112021923Y-91726870D01*
X112138129Y-91843076D01*
X112138133Y-91843079D01*
X112138135Y-91843081D01*
X112279602Y-91926744D01*
X112291498Y-91930200D01*
X112437426Y-91972597D01*
X112437429Y-91972597D01*
X112437431Y-91972598D01*
X112474306Y-91975500D01*
X112474314Y-91975500D01*
X112538786Y-91975500D01*
X112605825Y-91995185D01*
X112651580Y-92047989D01*
X112661524Y-92117147D01*
X112660403Y-92123691D01*
X112645000Y-92201126D01*
X112645000Y-92348873D01*
X112673820Y-92493759D01*
X112673822Y-92493767D01*
X112717421Y-92599024D01*
X113061336Y-92255109D01*
X113295000Y-92255109D01*
X113295000Y-92294891D01*
X113310224Y-92331645D01*
X113338355Y-92359776D01*
X113375109Y-92375000D01*
X113414891Y-92375000D01*
X113451645Y-92359776D01*
X113479776Y-92331645D01*
X113495000Y-92294891D01*
X113495000Y-92255109D01*
X113479776Y-92218355D01*
X113451645Y-92190224D01*
X113414891Y-92175000D01*
X113375109Y-92175000D01*
X113338355Y-92190224D01*
X113310224Y-92218355D01*
X113295000Y-92255109D01*
X113061336Y-92255109D01*
X113218222Y-92098223D01*
X113381110Y-91935333D01*
X113442433Y-91901848D01*
X113512125Y-91906832D01*
X113531906Y-91916278D01*
X113549602Y-91926744D01*
X113549604Y-91926744D01*
X113549605Y-91926745D01*
X113707426Y-91972597D01*
X113707429Y-91972597D01*
X113707431Y-91972598D01*
X113744306Y-91975500D01*
X113744314Y-91975500D01*
X113748692Y-91975500D01*
X113815731Y-91995185D01*
X113861486Y-92047989D01*
X113871430Y-92117147D01*
X113842405Y-92180703D01*
X113836373Y-92187181D01*
X113748554Y-92275000D01*
X113995000Y-92521446D01*
X114241446Y-92275000D01*
X114221555Y-92255109D01*
X114495000Y-92255109D01*
X114495000Y-92294891D01*
X114510224Y-92331645D01*
X114538355Y-92359776D01*
X114575109Y-92375000D01*
X114614891Y-92375000D01*
X114651645Y-92359776D01*
X114679776Y-92331645D01*
X114695000Y-92294891D01*
X114695000Y-92255109D01*
X114679776Y-92218355D01*
X114651645Y-92190224D01*
X114614891Y-92175000D01*
X114575109Y-92175000D01*
X114538355Y-92190224D01*
X114510224Y-92218355D01*
X114495000Y-92255109D01*
X114221555Y-92255109D01*
X114148469Y-92182023D01*
X114114984Y-92120700D01*
X114119968Y-92051008D01*
X114161840Y-91995075D01*
X114206799Y-91975449D01*
X114206485Y-91974366D01*
X114285154Y-91951509D01*
X114370398Y-91926744D01*
X114432073Y-91890269D01*
X114495193Y-91873001D01*
X114694806Y-91873001D01*
X114716051Y-91879239D01*
X114738138Y-91880819D01*
X114757921Y-91890266D01*
X114819602Y-91926744D01*
X114831498Y-91930200D01*
X114983515Y-91974366D01*
X114983080Y-91975860D01*
X115038536Y-92003765D01*
X115074061Y-92063929D01*
X115071421Y-92133749D01*
X115041531Y-92182023D01*
X114948554Y-92275000D01*
X115195000Y-92521446D01*
X115441446Y-92275000D01*
X115421555Y-92255109D01*
X115695000Y-92255109D01*
X115695000Y-92294891D01*
X115710224Y-92331645D01*
X115738355Y-92359776D01*
X115775109Y-92375000D01*
X115814891Y-92375000D01*
X115851645Y-92359776D01*
X115879776Y-92331645D01*
X115895000Y-92294891D01*
X115895000Y-92255109D01*
X115879776Y-92218355D01*
X115851645Y-92190224D01*
X115814891Y-92175000D01*
X115775109Y-92175000D01*
X115738355Y-92190224D01*
X115710224Y-92218355D01*
X115695000Y-92255109D01*
X115421555Y-92255109D01*
X115353627Y-92187181D01*
X115320142Y-92125858D01*
X115325126Y-92056166D01*
X115366998Y-92000233D01*
X115432462Y-91975816D01*
X115441308Y-91975500D01*
X115445686Y-91975500D01*
X115445694Y-91975500D01*
X115482569Y-91972598D01*
X115482571Y-91972597D01*
X115482573Y-91972597D01*
X115545227Y-91954394D01*
X115640398Y-91926744D01*
X115658085Y-91916283D01*
X115685686Y-91909280D01*
X115712361Y-91899331D01*
X115719110Y-91900799D01*
X115725807Y-91899100D01*
X115752814Y-91908131D01*
X115780634Y-91914183D01*
X115788482Y-91920058D01*
X115792070Y-91921258D01*
X115808887Y-91935333D01*
X115971777Y-92098223D01*
X116472577Y-92599024D01*
X116472578Y-92599024D01*
X116516175Y-92493775D01*
X116516179Y-92493760D01*
X116544999Y-92348873D01*
X116545000Y-92348871D01*
X116545000Y-92201128D01*
X116544999Y-92201126D01*
X116529597Y-92123691D01*
X116531262Y-92105076D01*
X116527877Y-92086698D01*
X116534311Y-92070999D01*
X116535824Y-92054100D01*
X116547288Y-92039341D01*
X116554377Y-92022049D01*
X116568278Y-92012321D01*
X116578687Y-91998922D01*
X116596311Y-91992704D01*
X116611623Y-91981990D01*
X116639758Y-91977377D01*
X116644577Y-91975678D01*
X116646333Y-91975596D01*
X116648770Y-91975500D01*
X116715694Y-91975500D01*
X116752569Y-91972598D01*
X116757296Y-91971224D01*
X116769619Y-91970739D01*
X116795328Y-91977200D01*
X116821688Y-91979973D01*
X116828682Y-91985582D01*
X116837381Y-91987769D01*
X116855517Y-92007105D01*
X116876192Y-92023688D01*
X116879043Y-92032189D01*
X116885179Y-92038731D01*
X116889981Y-92064801D01*
X116898410Y-92089931D01*
X116898500Y-92094643D01*
X116898500Y-93855356D01*
X116878815Y-93922395D01*
X116826011Y-93968150D01*
X116758893Y-93977800D01*
X116758886Y-93977899D01*
X116758448Y-93977864D01*
X116756853Y-93978094D01*
X116752654Y-93977408D01*
X116715701Y-93974500D01*
X116715694Y-93974500D01*
X116651214Y-93974500D01*
X116584175Y-93954815D01*
X116538420Y-93902011D01*
X116528476Y-93832853D01*
X116529597Y-93826309D01*
X116544999Y-93748873D01*
X116545000Y-93748871D01*
X116545000Y-93601128D01*
X116544999Y-93601126D01*
X116516179Y-93456240D01*
X116516178Y-93456236D01*
X116472577Y-93350975D01*
X115971777Y-93851777D01*
X115437204Y-94386350D01*
X115375881Y-94419835D01*
X115306189Y-94414851D01*
X115261842Y-94386350D01*
X115195000Y-94319508D01*
X115128158Y-94386350D01*
X115066835Y-94419835D01*
X114997143Y-94414851D01*
X114952796Y-94386350D01*
X114595000Y-94028554D01*
X114594999Y-94028554D01*
X114582873Y-94040680D01*
X114521550Y-94074164D01*
X114451858Y-94069179D01*
X114432072Y-94059730D01*
X114414263Y-94049198D01*
X114370398Y-94023256D01*
X114370397Y-94023255D01*
X114370396Y-94023255D01*
X114370393Y-94023254D01*
X114206485Y-93975634D01*
X114206917Y-93974143D01*
X114151449Y-93946220D01*
X114115933Y-93886051D01*
X114118585Y-93816232D01*
X114148469Y-93767975D01*
X114241445Y-93674999D01*
X114221555Y-93655109D01*
X114495000Y-93655109D01*
X114495000Y-93694891D01*
X114510224Y-93731645D01*
X114538355Y-93759776D01*
X114575109Y-93775000D01*
X114614891Y-93775000D01*
X114651645Y-93759776D01*
X114679776Y-93731645D01*
X114695000Y-93694891D01*
X114695000Y-93675000D01*
X114948554Y-93675000D01*
X115195000Y-93921446D01*
X115441446Y-93675000D01*
X115421555Y-93655109D01*
X115695000Y-93655109D01*
X115695000Y-93694891D01*
X115710224Y-93731645D01*
X115738355Y-93759776D01*
X115775109Y-93775000D01*
X115814891Y-93775000D01*
X115851645Y-93759776D01*
X115879776Y-93731645D01*
X115895000Y-93694891D01*
X115895000Y-93655109D01*
X115879776Y-93618355D01*
X115851645Y-93590224D01*
X115814891Y-93575000D01*
X115775109Y-93575000D01*
X115738355Y-93590224D01*
X115710224Y-93618355D01*
X115695000Y-93655109D01*
X115421555Y-93655109D01*
X115195000Y-93428554D01*
X114948554Y-93675000D01*
X114695000Y-93675000D01*
X114695000Y-93655109D01*
X114679776Y-93618355D01*
X114651645Y-93590224D01*
X114614891Y-93575000D01*
X114575109Y-93575000D01*
X114538355Y-93590224D01*
X114510224Y-93618355D01*
X114495000Y-93655109D01*
X114221555Y-93655109D01*
X113995000Y-93428554D01*
X113748554Y-93675000D01*
X113836373Y-93762819D01*
X113869858Y-93824142D01*
X113864874Y-93893834D01*
X113823002Y-93949767D01*
X113757538Y-93974184D01*
X113748692Y-93974500D01*
X113744298Y-93974500D01*
X113707432Y-93977401D01*
X113707426Y-93977402D01*
X113549606Y-94023254D01*
X113549601Y-94023256D01*
X113531908Y-94033719D01*
X113504311Y-94040719D01*
X113477638Y-94050668D01*
X113470883Y-94049198D01*
X113464184Y-94050898D01*
X113437185Y-94041867D01*
X113409365Y-94035816D01*
X113401510Y-94029936D01*
X113397922Y-94028736D01*
X113381111Y-94014665D01*
X113218223Y-93851777D01*
X113021555Y-93655109D01*
X113295000Y-93655109D01*
X113295000Y-93694891D01*
X113310224Y-93731645D01*
X113338355Y-93759776D01*
X113375109Y-93775000D01*
X113414891Y-93775000D01*
X113451645Y-93759776D01*
X113479776Y-93731645D01*
X113495000Y-93694891D01*
X113495000Y-93655109D01*
X113479776Y-93618355D01*
X113451645Y-93590224D01*
X113414891Y-93575000D01*
X113375109Y-93575000D01*
X113338355Y-93590224D01*
X113310224Y-93618355D01*
X113295000Y-93655109D01*
X113021555Y-93655109D01*
X112717421Y-93350974D01*
X112717420Y-93350974D01*
X112673823Y-93456228D01*
X112673820Y-93456240D01*
X112645000Y-93601126D01*
X112645000Y-93748871D01*
X112644999Y-93748871D01*
X112660503Y-93826808D01*
X112654276Y-93896400D01*
X112611413Y-93951577D01*
X112545524Y-93974822D01*
X112538886Y-93975000D01*
X112474350Y-93975000D01*
X112437510Y-93977899D01*
X112437504Y-93977900D01*
X112279806Y-94023716D01*
X112279803Y-94023717D01*
X112138447Y-94107314D01*
X112138438Y-94107321D01*
X112022321Y-94223438D01*
X112022314Y-94223447D01*
X111938717Y-94364803D01*
X111938716Y-94364806D01*
X111892900Y-94522504D01*
X111892899Y-94522510D01*
X111890000Y-94559350D01*
X111890000Y-95200000D01*
X112566000Y-95200000D01*
X112633039Y-95219685D01*
X112678794Y-95272489D01*
X112690000Y-95324000D01*
X112690000Y-95450000D01*
X112816000Y-95450000D01*
X112883039Y-95469685D01*
X112928794Y-95522489D01*
X112940000Y-95574000D01*
X112940000Y-96922295D01*
X112940001Y-96922295D01*
X112942486Y-96922100D01*
X113100198Y-96876281D01*
X113241550Y-96792686D01*
X113247717Y-96787903D01*
X113249630Y-96790369D01*
X113298222Y-96763802D01*
X113367917Y-96768749D01*
X113400762Y-96789853D01*
X113401969Y-96788298D01*
X113408132Y-96793078D01*
X113408135Y-96793081D01*
X113549602Y-96876744D01*
X113621269Y-96897565D01*
X113680153Y-96935170D01*
X113709360Y-96998643D01*
X113699614Y-97067829D01*
X113692212Y-97081737D01*
X113615645Y-97205871D01*
X113615641Y-97205880D01*
X113560494Y-97372302D01*
X113560493Y-97372309D01*
X113550000Y-97475013D01*
X113550000Y-97750000D01*
X114426000Y-97750000D01*
X114493039Y-97769685D01*
X114538794Y-97822489D01*
X114550000Y-97874000D01*
X114550000Y-98126000D01*
X114530315Y-98193039D01*
X114477511Y-98238794D01*
X114426000Y-98250000D01*
X113550001Y-98250000D01*
X113550001Y-98524986D01*
X113560494Y-98627697D01*
X113615641Y-98794119D01*
X113615643Y-98794124D01*
X113657142Y-98861403D01*
X113675582Y-98928795D01*
X113654660Y-98995459D01*
X113601018Y-99040229D01*
X113551603Y-99050500D01*
X109014000Y-99050500D01*
X108946961Y-99030815D01*
X108901206Y-98978011D01*
X108890000Y-98926500D01*
X108890000Y-98750000D01*
X107973012Y-98750000D01*
X108005925Y-98692993D01*
X108040000Y-98565826D01*
X108040000Y-98434174D01*
X108005925Y-98307007D01*
X107973012Y-98250000D01*
X108890000Y-98250000D01*
X108890000Y-97602172D01*
X108889999Y-97602155D01*
X108883598Y-97542627D01*
X108883596Y-97542620D01*
X108833354Y-97407913D01*
X108833350Y-97407906D01*
X108747190Y-97292812D01*
X108747187Y-97292809D01*
X108632093Y-97206649D01*
X108632086Y-97206645D01*
X108497379Y-97156403D01*
X108497372Y-97156401D01*
X108437844Y-97150000D01*
X107790000Y-97150000D01*
X107790000Y-98066988D01*
X107732993Y-98034075D01*
X107605826Y-98000000D01*
X107474174Y-98000000D01*
X107347007Y-98034075D01*
X107290000Y-98066988D01*
X107290000Y-97150000D01*
X106642155Y-97150000D01*
X106582627Y-97156401D01*
X106582620Y-97156403D01*
X106447913Y-97206645D01*
X106447906Y-97206649D01*
X106332812Y-97292809D01*
X106332809Y-97292812D01*
X106246649Y-97407906D01*
X106246646Y-97407912D01*
X106197577Y-97539471D01*
X106155705Y-97595404D01*
X106090241Y-97619821D01*
X106021968Y-97604969D01*
X105993714Y-97583818D01*
X105879786Y-97469890D01*
X105707820Y-97344951D01*
X105518414Y-97248444D01*
X105518413Y-97248443D01*
X105518412Y-97248443D01*
X105316243Y-97182754D01*
X105316241Y-97182753D01*
X105316240Y-97182753D01*
X105154957Y-97157208D01*
X105106287Y-97149500D01*
X104893713Y-97149500D01*
X104845042Y-97157208D01*
X104683760Y-97182753D01*
X104481585Y-97248444D01*
X104292179Y-97344951D01*
X104120213Y-97469890D01*
X103969890Y-97620213D01*
X103844951Y-97792179D01*
X103748444Y-97981585D01*
X103682753Y-98183760D01*
X103649500Y-98393713D01*
X103649500Y-98606286D01*
X103679250Y-98794124D01*
X103682754Y-98816243D01*
X103724153Y-98943656D01*
X103748444Y-99018414D01*
X103844951Y-99207820D01*
X103969890Y-99379786D01*
X103969896Y-99379792D01*
X104120208Y-99530104D01*
X104175068Y-99569962D01*
X104182252Y-99575181D01*
X104224918Y-99630511D01*
X104230897Y-99700124D01*
X104198292Y-99761920D01*
X104137453Y-99796277D01*
X104109367Y-99799500D01*
X79824500Y-99799500D01*
X79757461Y-99779815D01*
X79711706Y-99727011D01*
X79700500Y-99675500D01*
X79700500Y-96340649D01*
X111890000Y-96340649D01*
X111892899Y-96377489D01*
X111892900Y-96377495D01*
X111938716Y-96535193D01*
X111938717Y-96535196D01*
X112022314Y-96676552D01*
X112022321Y-96676561D01*
X112138438Y-96792678D01*
X112138447Y-96792685D01*
X112279801Y-96876281D01*
X112437514Y-96922100D01*
X112437511Y-96922100D01*
X112439998Y-96922295D01*
X112440000Y-96922295D01*
X112440000Y-95700000D01*
X111890000Y-95700000D01*
X111890000Y-96340649D01*
X79700500Y-96340649D01*
X79700500Y-92952930D01*
X113070622Y-92952930D01*
X113070622Y-92997068D01*
X113395000Y-93321446D01*
X113395001Y-93321446D01*
X113719376Y-92997069D01*
X113719376Y-92990852D01*
X113717486Y-92986049D01*
X113719261Y-92952930D01*
X114270622Y-92952930D01*
X114270622Y-92997068D01*
X114595000Y-93321446D01*
X114595001Y-93321446D01*
X114919376Y-92997069D01*
X114919376Y-92990852D01*
X114917486Y-92986049D01*
X114919261Y-92952930D01*
X115470622Y-92952930D01*
X115470622Y-92997068D01*
X115795000Y-93321446D01*
X115795001Y-93321446D01*
X116119376Y-92997069D01*
X116119376Y-92952929D01*
X115795001Y-92628554D01*
X115795000Y-92628554D01*
X115470622Y-92952930D01*
X114919261Y-92952930D01*
X114919267Y-92952820D01*
X114595001Y-92628554D01*
X114595000Y-92628554D01*
X114270622Y-92952930D01*
X113719261Y-92952930D01*
X113719267Y-92952820D01*
X113395001Y-92628554D01*
X113395000Y-92628554D01*
X113070622Y-92952930D01*
X79700500Y-92952930D01*
X79700500Y-73563769D01*
X79720185Y-73496730D01*
X79772989Y-73450975D01*
X79842147Y-73441031D01*
X79867833Y-73447587D01*
X79992517Y-73494091D01*
X79992516Y-73494091D01*
X79999444Y-73494835D01*
X80052127Y-73500500D01*
X82047872Y-73500499D01*
X82107483Y-73494091D01*
X82242331Y-73443796D01*
X82357546Y-73357546D01*
X82443796Y-73242331D01*
X82494091Y-73107483D01*
X82499062Y-73061242D01*
X82525799Y-72996694D01*
X82583191Y-72956846D01*
X82622351Y-72950500D01*
X87806167Y-72950500D01*
X87806183Y-72950501D01*
X87813779Y-72950501D01*
X87971890Y-72950501D01*
X87971893Y-72950501D01*
X88124621Y-72909577D01*
X88185377Y-72874499D01*
X88261552Y-72830520D01*
X88373356Y-72718716D01*
X88373356Y-72718714D01*
X88383560Y-72708511D01*
X88383564Y-72708506D01*
X92208506Y-68883564D01*
X92208511Y-68883560D01*
X92218714Y-68873356D01*
X92218716Y-68873356D01*
X92330520Y-68761552D01*
X92391972Y-68655113D01*
X92409577Y-68624621D01*
X92450501Y-68471893D01*
X92450501Y-68313779D01*
X92450501Y-68306184D01*
X92450500Y-68306166D01*
X92450500Y-67449097D01*
X92470185Y-67382058D01*
X92522989Y-67336303D01*
X92592147Y-67326359D01*
X92655703Y-67355384D01*
X92662181Y-67361416D01*
X95013181Y-69712416D01*
X95046666Y-69773739D01*
X95049500Y-69800097D01*
X95049500Y-70547870D01*
X95049501Y-70547876D01*
X95055908Y-70607483D01*
X95106202Y-70742328D01*
X95106206Y-70742335D01*
X95192452Y-70857544D01*
X95192455Y-70857547D01*
X95307664Y-70943793D01*
X95307671Y-70943797D01*
X95442517Y-70994091D01*
X95442516Y-70994091D01*
X95449444Y-70994835D01*
X95502127Y-71000500D01*
X96797872Y-71000499D01*
X96857483Y-70994091D01*
X96992331Y-70943796D01*
X97107546Y-70857546D01*
X97193796Y-70742331D01*
X97244091Y-70607483D01*
X97250500Y-70547873D01*
X97250499Y-69452128D01*
X97244091Y-69392517D01*
X97237931Y-69376000D01*
X97193797Y-69257670D01*
X97186786Y-69248305D01*
X97168823Y-69224310D01*
X97144406Y-69158849D01*
X97159257Y-69090575D01*
X97168820Y-69075694D01*
X97193796Y-69042331D01*
X97244091Y-68907483D01*
X97250500Y-68847873D01*
X97250499Y-68074499D01*
X97270183Y-68007461D01*
X97322987Y-67961706D01*
X97374499Y-67950500D01*
X98271982Y-67950500D01*
X98339021Y-67970185D01*
X98375086Y-68005612D01*
X98378211Y-68010290D01*
X98489707Y-68121786D01*
X98489711Y-68121789D01*
X98620814Y-68209390D01*
X98620827Y-68209397D01*
X98759963Y-68267028D01*
X98766503Y-68269737D01*
X98921153Y-68300499D01*
X98921156Y-68300500D01*
X98921158Y-68300500D01*
X99078844Y-68300500D01*
X99078845Y-68300499D01*
X99233497Y-68269737D01*
X99379179Y-68209394D01*
X99510289Y-68121789D01*
X99621789Y-68010289D01*
X99709394Y-67879179D01*
X99769737Y-67733497D01*
X99800500Y-67578842D01*
X99800500Y-67449097D01*
X99820185Y-67382058D01*
X99872989Y-67336303D01*
X99942147Y-67326359D01*
X100005703Y-67355384D01*
G37*
%TD.AperFunction*%
%TA.AperFunction,Conductor*%
G36*
X128763180Y-93155310D02*
G01*
X128796666Y-93216633D01*
X128799500Y-93242993D01*
X128799500Y-99675500D01*
X128779815Y-99742539D01*
X128727011Y-99788294D01*
X128675500Y-99799500D01*
X120779154Y-99799500D01*
X120712115Y-99779815D01*
X120666360Y-99727011D01*
X120656416Y-99657853D01*
X120685441Y-99594297D01*
X120714055Y-99569962D01*
X120718345Y-99567315D01*
X120842315Y-99443345D01*
X120934356Y-99294124D01*
X120934358Y-99294119D01*
X120989505Y-99127697D01*
X120989506Y-99127690D01*
X120999999Y-99024986D01*
X120999999Y-98945209D01*
X121019683Y-98878170D01*
X121072486Y-98832414D01*
X121141645Y-98822470D01*
X121176405Y-98832826D01*
X121180656Y-98834808D01*
X121180666Y-98834814D01*
X121347203Y-98889999D01*
X121449991Y-98900500D01*
X123550008Y-98900499D01*
X123652797Y-98889999D01*
X123819334Y-98834814D01*
X123968656Y-98742712D01*
X124092712Y-98618656D01*
X124184814Y-98469334D01*
X124239999Y-98302797D01*
X124250500Y-98200009D01*
X124250499Y-97649094D01*
X124270183Y-97582057D01*
X124322987Y-97536302D01*
X124392146Y-97526358D01*
X124455702Y-97555383D01*
X124462180Y-97561415D01*
X124713181Y-97812416D01*
X124746666Y-97873739D01*
X124749500Y-97900097D01*
X124749500Y-98200000D01*
X124749501Y-98200019D01*
X124760000Y-98302796D01*
X124760001Y-98302799D01*
X124801327Y-98427511D01*
X124815186Y-98469334D01*
X124907288Y-98618656D01*
X125031344Y-98742712D01*
X125180666Y-98834814D01*
X125347203Y-98889999D01*
X125449991Y-98900500D01*
X127550008Y-98900499D01*
X127652797Y-98889999D01*
X127819334Y-98834814D01*
X127968656Y-98742712D01*
X128092712Y-98618656D01*
X128184814Y-98469334D01*
X128239999Y-98302797D01*
X128250500Y-98200009D01*
X128250499Y-96799992D01*
X128249304Y-96788298D01*
X128239999Y-96697203D01*
X128239998Y-96697200D01*
X128233156Y-96676552D01*
X128184814Y-96530666D01*
X128092712Y-96381344D01*
X127968656Y-96257288D01*
X127819334Y-96165186D01*
X127652797Y-96110001D01*
X127652795Y-96110000D01*
X127550010Y-96099500D01*
X125449998Y-96099500D01*
X125449981Y-96099501D01*
X125347203Y-96110000D01*
X125347200Y-96110001D01*
X125180668Y-96165185D01*
X125180663Y-96165187D01*
X125031336Y-96257293D01*
X125025672Y-96261772D01*
X125024840Y-96260720D01*
X124970265Y-96290507D01*
X124900574Y-96285508D01*
X124856251Y-96257016D01*
X124120916Y-95521681D01*
X124087431Y-95460358D01*
X124092415Y-95390666D01*
X124134287Y-95334733D01*
X124199751Y-95310316D01*
X124208597Y-95310000D01*
X124821149Y-95310000D01*
X124821149Y-95310705D01*
X124854711Y-95315831D01*
X124855070Y-95314313D01*
X124862627Y-95316098D01*
X124922155Y-95322499D01*
X124922172Y-95322500D01*
X125070000Y-95322500D01*
X125070000Y-94060000D01*
X124144000Y-94060000D01*
X124076961Y-94040315D01*
X124031206Y-93987511D01*
X124020000Y-93936000D01*
X124020000Y-93705000D01*
X124242787Y-93705000D01*
X124325445Y-93682851D01*
X124399554Y-93640064D01*
X124460064Y-93579554D01*
X124502851Y-93505445D01*
X124517687Y-93450074D01*
X124564000Y-93440000D01*
X126505025Y-93440000D01*
X126469930Y-93475095D01*
X126423852Y-93554905D01*
X126400000Y-93643922D01*
X126400000Y-93736078D01*
X126423852Y-93825095D01*
X126469930Y-93904905D01*
X126505025Y-93940000D01*
X126300000Y-93940000D01*
X126300000Y-94036000D01*
X126280315Y-94103039D01*
X126227511Y-94148794D01*
X126176000Y-94160000D01*
X125570000Y-94160000D01*
X125570000Y-95322500D01*
X125717828Y-95322500D01*
X125717844Y-95322499D01*
X125777372Y-95316098D01*
X125777379Y-95316096D01*
X125912086Y-95265854D01*
X125912093Y-95265850D01*
X126027187Y-95179690D01*
X126027190Y-95179687D01*
X126113350Y-95064593D01*
X126113354Y-95064586D01*
X126157709Y-94945667D01*
X126199581Y-94889733D01*
X126265045Y-94865316D01*
X126273891Y-94865000D01*
X126750000Y-94865000D01*
X126750000Y-94040000D01*
X127250000Y-94040000D01*
X127250000Y-94865000D01*
X127267473Y-94865000D01*
X127450147Y-94836066D01*
X127626040Y-94778916D01*
X127626043Y-94778915D01*
X127790837Y-94694947D01*
X127940454Y-94586245D01*
X127940459Y-94586241D01*
X128071241Y-94455459D01*
X128071245Y-94455454D01*
X128179947Y-94305837D01*
X128263915Y-94141043D01*
X128263917Y-94141037D01*
X128321067Y-93965144D01*
X128325049Y-93940000D01*
X127494975Y-93940000D01*
X127530070Y-93904905D01*
X127576148Y-93825095D01*
X127600000Y-93736078D01*
X127600000Y-93643922D01*
X127576148Y-93554905D01*
X127530070Y-93475095D01*
X127494975Y-93440000D01*
X128325050Y-93440000D01*
X128325049Y-93439999D01*
X128321067Y-93414854D01*
X128282878Y-93297317D01*
X128280883Y-93227476D01*
X128316964Y-93167643D01*
X128379665Y-93136816D01*
X128400809Y-93135000D01*
X128567828Y-93135000D01*
X128567844Y-93134999D01*
X128627372Y-93128598D01*
X128627380Y-93128596D01*
X128632165Y-93126812D01*
X128701856Y-93121826D01*
X128763180Y-93155310D01*
G37*
%TD.AperFunction*%
%TA.AperFunction,Conductor*%
G36*
X121312462Y-91177546D02*
G01*
X121356813Y-91206048D01*
X122125139Y-91974374D01*
X122125149Y-91974385D01*
X122129479Y-91978715D01*
X122129480Y-91978716D01*
X122241284Y-92090520D01*
X122302493Y-92125858D01*
X122328095Y-92140639D01*
X122328096Y-92140640D01*
X122335750Y-92145059D01*
X122383965Y-92195625D01*
X122397189Y-92264232D01*
X122390971Y-92289216D01*
X122391527Y-92289365D01*
X122389424Y-92297213D01*
X122389423Y-92297215D01*
X122348499Y-92449943D01*
X122348499Y-92449945D01*
X122348499Y-92618046D01*
X122348500Y-92618059D01*
X122348500Y-95112330D01*
X122348499Y-95112348D01*
X122348499Y-95278054D01*
X122348498Y-95278054D01*
X122389422Y-95430783D01*
X122394957Y-95440370D01*
X122468477Y-95567712D01*
X122468481Y-95567717D01*
X122587349Y-95686585D01*
X122587355Y-95686590D01*
X122788584Y-95887819D01*
X122822069Y-95949142D01*
X122817085Y-96018834D01*
X122775213Y-96074767D01*
X122709749Y-96099184D01*
X122700903Y-96099500D01*
X121449998Y-96099500D01*
X121449981Y-96099501D01*
X121347203Y-96110000D01*
X121298642Y-96126092D01*
X121281700Y-96131706D01*
X121242698Y-96138000D01*
X120924500Y-96138000D01*
X120857461Y-96118315D01*
X120811706Y-96065511D01*
X120800500Y-96014000D01*
X120800500Y-95196813D01*
X120800499Y-95196798D01*
X120797598Y-95159932D01*
X120797597Y-95159926D01*
X120751745Y-95002106D01*
X120751744Y-95002103D01*
X120751744Y-95002102D01*
X120668081Y-94860635D01*
X120668079Y-94860633D01*
X120668076Y-94860629D01*
X120551870Y-94744423D01*
X120551867Y-94744421D01*
X120551865Y-94744419D01*
X120551549Y-94744232D01*
X120551353Y-94744022D01*
X120545702Y-94739639D01*
X120546409Y-94738727D01*
X120503866Y-94693164D01*
X120491362Y-94624423D01*
X120518006Y-94559833D01*
X120545921Y-94535644D01*
X120545702Y-94535361D01*
X120550911Y-94531320D01*
X120551550Y-94530767D01*
X120551865Y-94530581D01*
X120668081Y-94414365D01*
X120751744Y-94272898D01*
X120797598Y-94115069D01*
X120800500Y-94078194D01*
X120800500Y-92921806D01*
X120797598Y-92884931D01*
X120751744Y-92727102D01*
X120668081Y-92585635D01*
X120668079Y-92585633D01*
X120668076Y-92585629D01*
X120666728Y-92584281D01*
X120666008Y-92582963D01*
X120663298Y-92579469D01*
X120663861Y-92579031D01*
X120633243Y-92522958D01*
X120638227Y-92453266D01*
X120680099Y-92397333D01*
X120715405Y-92378894D01*
X120772709Y-92359905D01*
X120772714Y-92359903D01*
X120920691Y-92268629D01*
X121043629Y-92145691D01*
X121134903Y-91997714D01*
X121134905Y-91997709D01*
X121189592Y-91832673D01*
X121199999Y-91730815D01*
X121200000Y-91730802D01*
X121200000Y-91687500D01*
X120124000Y-91687500D01*
X120056961Y-91667815D01*
X120011206Y-91615011D01*
X120000000Y-91563500D01*
X120000000Y-91311500D01*
X120019685Y-91244461D01*
X120072489Y-91198706D01*
X120124000Y-91187500D01*
X121215418Y-91187500D01*
X121242770Y-91172564D01*
X121312462Y-91177546D01*
G37*
%TD.AperFunction*%
%TA.AperFunction,Conductor*%
G36*
X118828362Y-92045621D02*
G01*
X118855907Y-92045294D01*
X118862587Y-92049475D01*
X118870420Y-92050358D01*
X118891781Y-92067750D01*
X118915130Y-92082366D01*
X118923407Y-92093500D01*
X118924602Y-92094473D01*
X118924972Y-92095605D01*
X118927928Y-92099581D01*
X118956366Y-92145686D01*
X118956369Y-92145690D01*
X119079308Y-92268629D01*
X119227285Y-92359903D01*
X119227290Y-92359905D01*
X119284594Y-92378894D01*
X119342039Y-92418667D01*
X119368862Y-92483183D01*
X119356547Y-92551958D01*
X119333278Y-92584275D01*
X119331923Y-92585629D01*
X119331917Y-92585637D01*
X119248255Y-92727103D01*
X119248254Y-92727106D01*
X119202402Y-92884926D01*
X119202401Y-92884932D01*
X119199500Y-92921798D01*
X119199500Y-94078201D01*
X119202401Y-94115067D01*
X119202402Y-94115073D01*
X119248254Y-94272893D01*
X119248255Y-94272896D01*
X119331917Y-94414362D01*
X119336702Y-94420531D01*
X119335018Y-94421836D01*
X119363246Y-94473531D01*
X119358262Y-94543223D01*
X119326234Y-94590961D01*
X119300000Y-94615202D01*
X119300000Y-94880684D01*
X119282733Y-94943804D01*
X119248254Y-95002105D01*
X119248254Y-95002106D01*
X119202402Y-95159926D01*
X119202401Y-95159932D01*
X119199500Y-95196798D01*
X119199500Y-95651000D01*
X119196949Y-95659685D01*
X119198238Y-95668647D01*
X119187259Y-95692687D01*
X119179815Y-95718039D01*
X119172974Y-95723966D01*
X119169213Y-95732203D01*
X119146978Y-95746492D01*
X119127011Y-95763794D01*
X119116496Y-95766081D01*
X119110435Y-95769977D01*
X119075500Y-95775000D01*
X119024500Y-95775000D01*
X118957461Y-95755315D01*
X118911706Y-95702511D01*
X118900500Y-95651000D01*
X118900500Y-95196813D01*
X118900499Y-95196798D01*
X118897598Y-95159932D01*
X118897597Y-95159926D01*
X118851745Y-95002106D01*
X118851745Y-95002105D01*
X118851744Y-95002103D01*
X118851744Y-95002102D01*
X118817267Y-94943804D01*
X118800000Y-94880684D01*
X118800000Y-94615202D01*
X118773765Y-94590961D01*
X118737887Y-94531007D01*
X118740118Y-94461173D01*
X118764533Y-94421488D01*
X118763298Y-94420531D01*
X118768075Y-94414370D01*
X118768081Y-94414365D01*
X118851744Y-94272898D01*
X118897598Y-94115069D01*
X118900500Y-94078194D01*
X118900500Y-92921806D01*
X118897598Y-92884931D01*
X118851744Y-92727102D01*
X118768081Y-92585635D01*
X118768079Y-92585633D01*
X118768076Y-92585629D01*
X118672708Y-92490261D01*
X118667158Y-92480097D01*
X118658177Y-92472785D01*
X118650716Y-92449986D01*
X118639223Y-92428938D01*
X118639492Y-92415688D01*
X118636447Y-92406381D01*
X118640087Y-92386489D01*
X118640397Y-92371308D01*
X118702398Y-92133406D01*
X118716575Y-92109783D01*
X118727718Y-92084596D01*
X118734296Y-92080256D01*
X118738353Y-92073498D01*
X118763047Y-92061292D01*
X118786042Y-92046125D01*
X118793923Y-92046031D01*
X118800989Y-92042539D01*
X118828362Y-92045621D01*
G37*
%TD.AperFunction*%
%TA.AperFunction,Conductor*%
G36*
X127463039Y-90019685D02*
G01*
X127508794Y-90072489D01*
X127520000Y-90124000D01*
X127520000Y-91796000D01*
X127500315Y-91863039D01*
X127447511Y-91908794D01*
X127396000Y-91920000D01*
X127144000Y-91920000D01*
X127076961Y-91900315D01*
X127031206Y-91847511D01*
X127020000Y-91796000D01*
X127020000Y-90124000D01*
X127039685Y-90056961D01*
X127092489Y-90011206D01*
X127144000Y-90000000D01*
X127396000Y-90000000D01*
X127463039Y-90019685D01*
G37*
%TD.AperFunction*%
%TA.AperFunction,Conductor*%
G36*
X114766942Y-72120185D02*
G01*
X114787584Y-72136819D01*
X120863181Y-78212416D01*
X120896666Y-78273739D01*
X120899500Y-78300097D01*
X120899500Y-88509860D01*
X120879815Y-88576899D01*
X120827011Y-88622654D01*
X120757853Y-88632598D01*
X120736497Y-88627566D01*
X120607778Y-88584913D01*
X120505855Y-88574500D01*
X120505848Y-88574500D01*
X119494152Y-88574500D01*
X119494144Y-88574500D01*
X119392223Y-88584913D01*
X119227077Y-88639637D01*
X119227066Y-88639642D01*
X119079000Y-88730971D01*
X118987354Y-88822617D01*
X118926030Y-88856101D01*
X118856339Y-88851117D01*
X118852221Y-88849496D01*
X118756765Y-88809957D01*
X118756760Y-88809955D01*
X118639361Y-88794500D01*
X118360636Y-88794500D01*
X118243246Y-88809953D01*
X118243237Y-88809956D01*
X118097160Y-88870463D01*
X117971718Y-88966718D01*
X117875462Y-89092161D01*
X117853603Y-89144933D01*
X117833019Y-89170474D01*
X117813353Y-89196745D01*
X117811201Y-89197547D01*
X117809761Y-89199335D01*
X117778631Y-89209695D01*
X117747889Y-89221162D01*
X117745645Y-89220673D01*
X117743467Y-89221399D01*
X117711672Y-89213283D01*
X117679616Y-89206310D01*
X117677165Y-89204475D01*
X117675768Y-89204119D01*
X117651362Y-89185159D01*
X117537918Y-89071715D01*
X117504433Y-89010392D01*
X117509417Y-88940700D01*
X117520061Y-88918936D01*
X117542402Y-88882716D01*
X117542405Y-88882709D01*
X117597092Y-88717673D01*
X117607499Y-88615815D01*
X117607500Y-88615802D01*
X117607500Y-88360000D01*
X116744000Y-88360000D01*
X116676961Y-88340315D01*
X116631206Y-88287511D01*
X116620000Y-88236000D01*
X116620000Y-88110000D01*
X116494000Y-88110000D01*
X116426961Y-88090315D01*
X116381206Y-88037511D01*
X116370000Y-87986000D01*
X116370000Y-87860000D01*
X116870000Y-87860000D01*
X117607500Y-87860000D01*
X117607500Y-87604197D01*
X117607499Y-87604184D01*
X117597092Y-87502326D01*
X117542405Y-87337290D01*
X117542403Y-87337285D01*
X117451129Y-87189308D01*
X117328191Y-87066370D01*
X117180214Y-86975096D01*
X117180209Y-86975094D01*
X117015173Y-86920407D01*
X116913315Y-86910000D01*
X116870000Y-86910000D01*
X116870000Y-87860000D01*
X116370000Y-87860000D01*
X116370000Y-86910000D01*
X116326684Y-86910000D01*
X116224826Y-86920407D01*
X116059790Y-86975094D01*
X116059785Y-86975096D01*
X115911808Y-87066370D01*
X115788869Y-87189309D01*
X115788864Y-87189315D01*
X115788329Y-87190184D01*
X115787806Y-87190654D01*
X115784388Y-87194977D01*
X115783649Y-87194392D01*
X115736379Y-87236906D01*
X115667416Y-87248125D01*
X115603335Y-87220278D01*
X115581086Y-87194601D01*
X115581007Y-87194664D01*
X115579611Y-87192898D01*
X115577258Y-87190183D01*
X115576528Y-87188999D01*
X115453503Y-87065974D01*
X115453499Y-87065971D01*
X115305433Y-86974642D01*
X115305427Y-86974639D01*
X115305425Y-86974638D01*
X115207784Y-86942283D01*
X115140276Y-86919913D01*
X115038355Y-86909500D01*
X115038348Y-86909500D01*
X114451652Y-86909500D01*
X114451644Y-86909500D01*
X114349723Y-86919913D01*
X114184577Y-86974637D01*
X114184566Y-86974642D01*
X114036500Y-87065971D01*
X114036496Y-87065974D01*
X113913473Y-87188997D01*
X113893341Y-87221638D01*
X113841393Y-87268363D01*
X113787802Y-87280542D01*
X113019899Y-87280542D01*
X112978978Y-87291506D01*
X112978978Y-87291507D01*
X112941710Y-87301493D01*
X112867173Y-87321465D01*
X112867168Y-87321468D01*
X112730249Y-87400517D01*
X112730241Y-87400523D01*
X112311285Y-87819479D01*
X112311284Y-87819481D01*
X112286355Y-87844408D01*
X112277965Y-87852799D01*
X112252295Y-87872497D01*
X112247165Y-87875459D01*
X112121718Y-87971718D01*
X112025463Y-88097160D01*
X111964956Y-88243237D01*
X111964955Y-88243239D01*
X111949500Y-88360638D01*
X111949500Y-88610902D01*
X111929815Y-88677941D01*
X111877011Y-88723696D01*
X111807853Y-88733640D01*
X111744297Y-88704615D01*
X111737819Y-88698583D01*
X107886819Y-84847583D01*
X107853334Y-84786260D01*
X107850500Y-84759902D01*
X107850500Y-81550096D01*
X107870185Y-81483057D01*
X107886815Y-81462419D01*
X108358506Y-80990727D01*
X108358511Y-80990724D01*
X108368714Y-80980520D01*
X108368716Y-80980520D01*
X108480520Y-80868716D01*
X108484127Y-80862468D01*
X108534338Y-80775501D01*
X108534339Y-80775499D01*
X108559574Y-80731790D01*
X108559573Y-80731790D01*
X108559577Y-80731785D01*
X108600500Y-80579057D01*
X108600500Y-80420943D01*
X108600500Y-80288585D01*
X108620185Y-80221546D01*
X108672989Y-80175791D01*
X108685489Y-80170881D01*
X108794334Y-80134814D01*
X108943656Y-80042712D01*
X109067712Y-79918656D01*
X109159814Y-79769334D01*
X109214999Y-79602797D01*
X109225500Y-79500009D01*
X109225499Y-78899992D01*
X109214999Y-78797203D01*
X109159814Y-78630666D01*
X109067712Y-78481344D01*
X108943656Y-78357288D01*
X108940342Y-78355243D01*
X108938546Y-78353248D01*
X108937989Y-78352807D01*
X108938064Y-78352711D01*
X108893618Y-78303297D01*
X108882397Y-78234334D01*
X108910240Y-78170252D01*
X108940348Y-78144165D01*
X108943342Y-78142318D01*
X109067315Y-78018345D01*
X109159356Y-77869124D01*
X109159358Y-77869119D01*
X109214505Y-77702697D01*
X109214506Y-77702690D01*
X109224999Y-77599986D01*
X109225000Y-77599973D01*
X109225000Y-77550000D01*
X108124000Y-77550000D01*
X108056961Y-77530315D01*
X108011206Y-77477511D01*
X108000000Y-77426000D01*
X108000000Y-77300000D01*
X107874000Y-77300000D01*
X107806961Y-77280315D01*
X107761206Y-77227511D01*
X107750000Y-77176000D01*
X107750000Y-77050000D01*
X108250000Y-77050000D01*
X109224999Y-77050000D01*
X109224999Y-77000028D01*
X109224998Y-77000013D01*
X109214505Y-76897302D01*
X109159358Y-76730880D01*
X109159356Y-76730875D01*
X109067315Y-76581654D01*
X108943345Y-76457684D01*
X108794124Y-76365643D01*
X108794119Y-76365641D01*
X108627697Y-76310494D01*
X108627690Y-76310493D01*
X108524986Y-76300000D01*
X108250000Y-76300000D01*
X108250000Y-77050000D01*
X107750000Y-77050000D01*
X107750000Y-76300000D01*
X107475029Y-76300000D01*
X107475000Y-76300002D01*
X107463097Y-76301218D01*
X107394405Y-76288446D01*
X107343522Y-76240564D01*
X107326500Y-76177860D01*
X107326500Y-72224500D01*
X107346185Y-72157461D01*
X107398989Y-72111706D01*
X107450500Y-72100500D01*
X114699903Y-72100500D01*
X114766942Y-72120185D01*
G37*
%TD.AperFunction*%
%TA.AperFunction,Conductor*%
G36*
X128742539Y-50220185D02*
G01*
X128788294Y-50272989D01*
X128799500Y-50324500D01*
X128799500Y-88677006D01*
X128779815Y-88744045D01*
X128727011Y-88789800D01*
X128657853Y-88799744D01*
X128632173Y-88793190D01*
X128627384Y-88791404D01*
X128627372Y-88791401D01*
X128567844Y-88785000D01*
X128400809Y-88785000D01*
X128333770Y-88765315D01*
X128288015Y-88712511D01*
X128278071Y-88643353D01*
X128282878Y-88622683D01*
X128321067Y-88505145D01*
X128325049Y-88480000D01*
X127494975Y-88480000D01*
X127530070Y-88444905D01*
X127576148Y-88365095D01*
X127600000Y-88276078D01*
X127600000Y-88183922D01*
X127576148Y-88094905D01*
X127530070Y-88015095D01*
X127494975Y-87980000D01*
X128325050Y-87980000D01*
X128325049Y-87979999D01*
X128321067Y-87954855D01*
X128263917Y-87778962D01*
X128263915Y-87778956D01*
X128179947Y-87614162D01*
X128071245Y-87464545D01*
X128071241Y-87464540D01*
X127940459Y-87333758D01*
X127940454Y-87333754D01*
X127790837Y-87225052D01*
X127626043Y-87141084D01*
X127626040Y-87141083D01*
X127450147Y-87083933D01*
X127267473Y-87055000D01*
X127250000Y-87055000D01*
X127250000Y-87880000D01*
X126750000Y-87880000D01*
X126750000Y-87035000D01*
X126284131Y-87035000D01*
X126217092Y-87015315D01*
X126171337Y-86962511D01*
X126164403Y-86942283D01*
X126113354Y-86805413D01*
X126113350Y-86805406D01*
X126027190Y-86690312D01*
X126027187Y-86690309D01*
X125912093Y-86604149D01*
X125912086Y-86604145D01*
X125777379Y-86553903D01*
X125777372Y-86553901D01*
X125717844Y-86547500D01*
X125570000Y-86547500D01*
X125570000Y-87960000D01*
X125946000Y-87960000D01*
X126013039Y-87979685D01*
X126058794Y-88032489D01*
X126070000Y-88084000D01*
X126070000Y-88336000D01*
X126050315Y-88403039D01*
X125997511Y-88448794D01*
X125946000Y-88460000D01*
X124564000Y-88460000D01*
X124510846Y-88444392D01*
X124502851Y-88414555D01*
X124460064Y-88340446D01*
X124440000Y-88320382D01*
X124440000Y-88310000D01*
X124429618Y-88310000D01*
X124399554Y-88279936D01*
X124325445Y-88237149D01*
X124242787Y-88215000D01*
X124006309Y-88215000D01*
X124000000Y-88186000D01*
X124000000Y-88060000D01*
X123874000Y-88060000D01*
X123806961Y-88040315D01*
X123761206Y-87987511D01*
X123750000Y-87936000D01*
X123750000Y-86560000D01*
X124250000Y-86560000D01*
X124250000Y-87810000D01*
X125070000Y-87810000D01*
X125070000Y-86547500D01*
X124922155Y-86547500D01*
X124862627Y-86553901D01*
X124855070Y-86555687D01*
X124854863Y-86554813D01*
X124806311Y-86560911D01*
X124797834Y-86560000D01*
X124250000Y-86560000D01*
X123750000Y-86560000D01*
X123202155Y-86560000D01*
X123142627Y-86566401D01*
X123142620Y-86566403D01*
X123007913Y-86616645D01*
X123007906Y-86616649D01*
X122892812Y-86702809D01*
X122823766Y-86795042D01*
X122767832Y-86836912D01*
X122698140Y-86841896D01*
X122636817Y-86808410D01*
X122603333Y-86747086D01*
X122600500Y-86720730D01*
X122600500Y-77420945D01*
X122600500Y-77420943D01*
X122559577Y-77268216D01*
X122559577Y-77268215D01*
X122559577Y-77268214D01*
X122530639Y-77218095D01*
X122530637Y-77218092D01*
X122506336Y-77176000D01*
X122480520Y-77131284D01*
X122368716Y-77019480D01*
X122368715Y-77019479D01*
X122364385Y-77015149D01*
X122364374Y-77015139D01*
X116071415Y-70722180D01*
X116037930Y-70660857D01*
X116042914Y-70591165D01*
X116084786Y-70535232D01*
X116139195Y-70512106D01*
X116149078Y-70510499D01*
X116187872Y-70510499D01*
X116247483Y-70504091D01*
X116293080Y-70487084D01*
X116305099Y-70485130D01*
X116328170Y-70488015D01*
X116351358Y-70486357D01*
X116368327Y-70491338D01*
X116402517Y-70504091D01*
X116462127Y-70510500D01*
X117457872Y-70510499D01*
X117517483Y-70504091D01*
X117551667Y-70491340D01*
X117621358Y-70486357D01*
X117638327Y-70491338D01*
X117672517Y-70504091D01*
X117732127Y-70510500D01*
X118727872Y-70510499D01*
X118787483Y-70504091D01*
X118821667Y-70491340D01*
X118891358Y-70486357D01*
X118908327Y-70491338D01*
X118942517Y-70504091D01*
X119002127Y-70510500D01*
X119997872Y-70510499D01*
X120057483Y-70504091D01*
X120192331Y-70453796D01*
X120307546Y-70367546D01*
X120393796Y-70252331D01*
X120444091Y-70117483D01*
X120450500Y-70057873D01*
X120450499Y-69084498D01*
X120470183Y-69017460D01*
X120522987Y-68971705D01*
X120574494Y-68960499D01*
X121314902Y-68960499D01*
X121381941Y-68980184D01*
X121402583Y-68996818D01*
X124020139Y-71614374D01*
X124020149Y-71614385D01*
X124024479Y-71618715D01*
X124024480Y-71618716D01*
X124136284Y-71730520D01*
X124201576Y-71768216D01*
X124273215Y-71809577D01*
X124425943Y-71850501D01*
X124425946Y-71850501D01*
X124591653Y-71850501D01*
X124591669Y-71850500D01*
X125715202Y-71850500D01*
X125782241Y-71870185D01*
X125820739Y-71909401D01*
X125857288Y-71968656D01*
X125981344Y-72092712D01*
X126130666Y-72184814D01*
X126297203Y-72239999D01*
X126399991Y-72250500D01*
X127600008Y-72250499D01*
X127702797Y-72239999D01*
X127869334Y-72184814D01*
X128018656Y-72092712D01*
X128142712Y-71968656D01*
X128234814Y-71819334D01*
X128289999Y-71652797D01*
X128300500Y-71550009D01*
X128300499Y-70949992D01*
X128289999Y-70847203D01*
X128234814Y-70680666D01*
X128142712Y-70531344D01*
X128018656Y-70407288D01*
X127869334Y-70315186D01*
X127702797Y-70260001D01*
X127702795Y-70260000D01*
X127600010Y-70249500D01*
X126399998Y-70249500D01*
X126399981Y-70249501D01*
X126297203Y-70260000D01*
X126297200Y-70260001D01*
X126130668Y-70315185D01*
X126130659Y-70315189D01*
X126014133Y-70387063D01*
X125946741Y-70405503D01*
X125880077Y-70384580D01*
X125835308Y-70330938D01*
X125826647Y-70261607D01*
X125843499Y-70216427D01*
X125934353Y-70069130D01*
X125934358Y-70069119D01*
X125989505Y-69902697D01*
X125989506Y-69902690D01*
X125999999Y-69799986D01*
X126000000Y-69799973D01*
X126000000Y-69750000D01*
X124824000Y-69750000D01*
X124756961Y-69730315D01*
X124711206Y-69677511D01*
X124700000Y-69626000D01*
X124700000Y-69500000D01*
X124574000Y-69500000D01*
X124506961Y-69480315D01*
X124461206Y-69427511D01*
X124450000Y-69376000D01*
X124450000Y-68500000D01*
X124950000Y-68500000D01*
X124950000Y-69250000D01*
X125999999Y-69250000D01*
X125999999Y-69200028D01*
X125999998Y-69200013D01*
X125989505Y-69097302D01*
X125934358Y-68930880D01*
X125934356Y-68930875D01*
X125843498Y-68783572D01*
X125825058Y-68716180D01*
X125845980Y-68649516D01*
X125899622Y-68604746D01*
X125968953Y-68596085D01*
X126014130Y-68612934D01*
X126130666Y-68684814D01*
X126297203Y-68739999D01*
X126399991Y-68750500D01*
X127600008Y-68750499D01*
X127702797Y-68739999D01*
X127869334Y-68684814D01*
X128018656Y-68592712D01*
X128142712Y-68468656D01*
X128234814Y-68319334D01*
X128289999Y-68152797D01*
X128300500Y-68050009D01*
X128300499Y-67449992D01*
X128293559Y-67382058D01*
X128289999Y-67347203D01*
X128289998Y-67347200D01*
X128286387Y-67336303D01*
X128234814Y-67180666D01*
X128142712Y-67031344D01*
X128018656Y-66907288D01*
X127914965Y-66843331D01*
X127869336Y-66815187D01*
X127869331Y-66815185D01*
X127867862Y-66814698D01*
X127702797Y-66760001D01*
X127702795Y-66760000D01*
X127600010Y-66749500D01*
X126399998Y-66749500D01*
X126399981Y-66749501D01*
X126297203Y-66760000D01*
X126297200Y-66760001D01*
X126130668Y-66815185D01*
X126130663Y-66815187D01*
X125981342Y-66907289D01*
X125857289Y-67031342D01*
X125765187Y-67180663D01*
X125765185Y-67180668D01*
X125747678Y-67233501D01*
X125710001Y-67347203D01*
X125710001Y-67347204D01*
X125710000Y-67347204D01*
X125699500Y-67449983D01*
X125699500Y-68050001D01*
X125699501Y-68050019D01*
X125710000Y-68152796D01*
X125710001Y-68152799D01*
X125765185Y-68319331D01*
X125765189Y-68319340D01*
X125856137Y-68466791D01*
X125874577Y-68534183D01*
X125853654Y-68600847D01*
X125800012Y-68645616D01*
X125730681Y-68654277D01*
X125685501Y-68637426D01*
X125569124Y-68565643D01*
X125569119Y-68565641D01*
X125402697Y-68510494D01*
X125402690Y-68510493D01*
X125299986Y-68500000D01*
X124950000Y-68500000D01*
X124450000Y-68500000D01*
X124100028Y-68500000D01*
X124100012Y-68500001D01*
X123997302Y-68510494D01*
X123830880Y-68565641D01*
X123830875Y-68565643D01*
X123681654Y-68657684D01*
X123557684Y-68781654D01*
X123465643Y-68930875D01*
X123465641Y-68930880D01*
X123421721Y-69063422D01*
X123381948Y-69120867D01*
X123317432Y-69147690D01*
X123248656Y-69135375D01*
X123216334Y-69112099D01*
X122551818Y-68447583D01*
X122518333Y-68386260D01*
X122515499Y-68359902D01*
X122515499Y-67512129D01*
X122515498Y-67512123D01*
X122515497Y-67512116D01*
X122509091Y-67452517D01*
X122496340Y-67418332D01*
X122491357Y-67348642D01*
X122496340Y-67331669D01*
X122509091Y-67297483D01*
X122515500Y-67237873D01*
X122515499Y-66242128D01*
X122509091Y-66182517D01*
X122496340Y-66148332D01*
X122491357Y-66078642D01*
X122496340Y-66061669D01*
X122509091Y-66027483D01*
X122515500Y-65967873D01*
X122515499Y-64972128D01*
X122509091Y-64912517D01*
X122496340Y-64878332D01*
X122491357Y-64808642D01*
X122496340Y-64791669D01*
X122509091Y-64757483D01*
X122515500Y-64697873D01*
X122515499Y-63702128D01*
X122509091Y-63642517D01*
X122496340Y-63608332D01*
X122491357Y-63538642D01*
X122496340Y-63521669D01*
X122509091Y-63487483D01*
X122515500Y-63427873D01*
X122515499Y-62432128D01*
X122509091Y-62372517D01*
X122496340Y-62338332D01*
X122491357Y-62268642D01*
X122496340Y-62251669D01*
X122509091Y-62217483D01*
X122515500Y-62157873D01*
X122515499Y-61851345D01*
X122535183Y-61784308D01*
X122587987Y-61738553D01*
X122657146Y-61728609D01*
X122686951Y-61736786D01*
X122766498Y-61769735D01*
X122766503Y-61769737D01*
X122921153Y-61800499D01*
X122921156Y-61800500D01*
X122921158Y-61800500D01*
X122971638Y-61800500D01*
X123004587Y-61804958D01*
X123015357Y-61807926D01*
X123018216Y-61809577D01*
X123130019Y-61839534D01*
X123170942Y-61850500D01*
X123170943Y-61850500D01*
X123415202Y-61850500D01*
X123482241Y-61870185D01*
X123520739Y-61909401D01*
X123557288Y-61968656D01*
X123681344Y-62092712D01*
X123830666Y-62184814D01*
X123997203Y-62239999D01*
X124099991Y-62250500D01*
X125300008Y-62250499D01*
X125402797Y-62239999D01*
X125569334Y-62184814D01*
X125684918Y-62113521D01*
X125752308Y-62095081D01*
X125818972Y-62116003D01*
X125863741Y-62169645D01*
X125872403Y-62238976D01*
X125855552Y-62284156D01*
X125765190Y-62430659D01*
X125765185Y-62430668D01*
X125758613Y-62450501D01*
X125710001Y-62597203D01*
X125710001Y-62597204D01*
X125710000Y-62597204D01*
X125699500Y-62699983D01*
X125699500Y-63300001D01*
X125699501Y-63300019D01*
X125710000Y-63402796D01*
X125710001Y-63402799D01*
X125765185Y-63569331D01*
X125765189Y-63569340D01*
X125855552Y-63715843D01*
X125873992Y-63783235D01*
X125853069Y-63849899D01*
X125799427Y-63894668D01*
X125730096Y-63903329D01*
X125684919Y-63886479D01*
X125569334Y-63815186D01*
X125402797Y-63760001D01*
X125402795Y-63760000D01*
X125300010Y-63749500D01*
X124099998Y-63749500D01*
X124099981Y-63749501D01*
X123997203Y-63760000D01*
X123997200Y-63760001D01*
X123830668Y-63815185D01*
X123830663Y-63815187D01*
X123681342Y-63907289D01*
X123557289Y-64031342D01*
X123465187Y-64180663D01*
X123465185Y-64180668D01*
X123447678Y-64233501D01*
X123410001Y-64347203D01*
X123410001Y-64347204D01*
X123410000Y-64347204D01*
X123399500Y-64449983D01*
X123399500Y-65050001D01*
X123399501Y-65050019D01*
X123410000Y-65152796D01*
X123410001Y-65152799D01*
X123465185Y-65319331D01*
X123465186Y-65319334D01*
X123557288Y-65468656D01*
X123681344Y-65592712D01*
X123830666Y-65684814D01*
X123997203Y-65739999D01*
X124099991Y-65750500D01*
X125300008Y-65750499D01*
X125402797Y-65739999D01*
X125569334Y-65684814D01*
X125718656Y-65592712D01*
X125842712Y-65468656D01*
X125934814Y-65319334D01*
X125989999Y-65152797D01*
X126000500Y-65050009D01*
X126000499Y-64449992D01*
X126000282Y-64447872D01*
X125989999Y-64347203D01*
X125989998Y-64347200D01*
X125934814Y-64180666D01*
X125934810Y-64180659D01*
X125844447Y-64034156D01*
X125826007Y-63966764D01*
X125846930Y-63900100D01*
X125900572Y-63855331D01*
X125969903Y-63846670D01*
X126015077Y-63863519D01*
X126130666Y-63934814D01*
X126297203Y-63989999D01*
X126399991Y-64000500D01*
X127600008Y-64000499D01*
X127702797Y-63989999D01*
X127869334Y-63934814D01*
X128018656Y-63842712D01*
X128142712Y-63718656D01*
X128234814Y-63569334D01*
X128289999Y-63402797D01*
X128300500Y-63300009D01*
X128300499Y-62699992D01*
X128289999Y-62597203D01*
X128234814Y-62430666D01*
X128142712Y-62281344D01*
X128018656Y-62157288D01*
X127869334Y-62065186D01*
X127869331Y-62065185D01*
X127702795Y-62010000D01*
X127698533Y-62009088D01*
X127637102Y-61975801D01*
X127603419Y-61914586D01*
X127600500Y-61887837D01*
X127600500Y-61489060D01*
X127600501Y-61489047D01*
X127600501Y-61320944D01*
X127585915Y-61266510D01*
X127559577Y-61168216D01*
X127547832Y-61147873D01*
X127480524Y-61031290D01*
X127480518Y-61031282D01*
X126372223Y-59922987D01*
X125260096Y-58810861D01*
X125226612Y-58749539D01*
X125224420Y-58710577D01*
X125225500Y-58700009D01*
X125225499Y-58099992D01*
X125214999Y-57997203D01*
X125159814Y-57830666D01*
X125067712Y-57681344D01*
X124943656Y-57557288D01*
X124940342Y-57555243D01*
X124938546Y-57553248D01*
X124937989Y-57552807D01*
X124938064Y-57552711D01*
X124893618Y-57503297D01*
X124882397Y-57434334D01*
X124910240Y-57370252D01*
X124940348Y-57344165D01*
X124943342Y-57342318D01*
X125067315Y-57218345D01*
X125159356Y-57069124D01*
X125159358Y-57069119D01*
X125214505Y-56902697D01*
X125214506Y-56902690D01*
X125224999Y-56799986D01*
X125225000Y-56799973D01*
X125225000Y-56750000D01*
X122775001Y-56750000D01*
X122775001Y-56799986D01*
X122785494Y-56902697D01*
X122840641Y-57069119D01*
X122840643Y-57069124D01*
X122932684Y-57218345D01*
X123056655Y-57342316D01*
X123056659Y-57342319D01*
X123059656Y-57344168D01*
X123061279Y-57345972D01*
X123062323Y-57346798D01*
X123062181Y-57346976D01*
X123106381Y-57396116D01*
X123117602Y-57465079D01*
X123089759Y-57529161D01*
X123059661Y-57555241D01*
X123056349Y-57557283D01*
X123056343Y-57557288D01*
X122932289Y-57681342D01*
X122840187Y-57830663D01*
X122840185Y-57830668D01*
X122831821Y-57855909D01*
X122785001Y-57997203D01*
X122785001Y-57997204D01*
X122785000Y-57997204D01*
X122774500Y-58099983D01*
X122774500Y-58700001D01*
X122774501Y-58700019D01*
X122785000Y-58802796D01*
X122785001Y-58802799D01*
X122809593Y-58877011D01*
X122840186Y-58969334D01*
X122932288Y-59118656D01*
X123056344Y-59242712D01*
X123205666Y-59334814D01*
X123372203Y-59389999D01*
X123474991Y-59400500D01*
X124099902Y-59400499D01*
X124166941Y-59420183D01*
X124187583Y-59436818D01*
X124788583Y-60037819D01*
X124822068Y-60099142D01*
X124817084Y-60168834D01*
X124775212Y-60224767D01*
X124709748Y-60249184D01*
X124700902Y-60249500D01*
X124099998Y-60249500D01*
X124099980Y-60249501D01*
X123997203Y-60260000D01*
X123997200Y-60260001D01*
X123830668Y-60315185D01*
X123830659Y-60315189D01*
X123676978Y-60409980D01*
X123609586Y-60428420D01*
X123542922Y-60407497D01*
X123524201Y-60392122D01*
X123510292Y-60378213D01*
X123510288Y-60378210D01*
X123379185Y-60290609D01*
X123379172Y-60290602D01*
X123233501Y-60230264D01*
X123233489Y-60230261D01*
X123078845Y-60199500D01*
X123078842Y-60199500D01*
X122921158Y-60199500D01*
X122921155Y-60199500D01*
X122766510Y-60230261D01*
X122766498Y-60230264D01*
X122686951Y-60263214D01*
X122617482Y-60270683D01*
X122555003Y-60239408D01*
X122519351Y-60179319D01*
X122515499Y-60148653D01*
X122515499Y-59892129D01*
X122515498Y-59892123D01*
X122515497Y-59892116D01*
X122509091Y-59832517D01*
X122496340Y-59798332D01*
X122491357Y-59728642D01*
X122496340Y-59711669D01*
X122509091Y-59677483D01*
X122515500Y-59617873D01*
X122515499Y-58622128D01*
X122509091Y-58562517D01*
X122496340Y-58528332D01*
X122491357Y-58458642D01*
X122496340Y-58441669D01*
X122509091Y-58407483D01*
X122515500Y-58347873D01*
X122515499Y-57352128D01*
X122509091Y-57292517D01*
X122496340Y-57258332D01*
X122491357Y-57188642D01*
X122496340Y-57171669D01*
X122509091Y-57137483D01*
X122515500Y-57077873D01*
X122515499Y-56200013D01*
X122775000Y-56200013D01*
X122775000Y-56250000D01*
X123750000Y-56250000D01*
X124250000Y-56250000D01*
X125224999Y-56250000D01*
X125224999Y-56200028D01*
X125224998Y-56200013D01*
X125214505Y-56097302D01*
X125159358Y-55930880D01*
X125159356Y-55930875D01*
X125067315Y-55781654D01*
X124943345Y-55657684D01*
X124794124Y-55565643D01*
X124794119Y-55565641D01*
X124627697Y-55510494D01*
X124627690Y-55510493D01*
X124524986Y-55500000D01*
X124250000Y-55500000D01*
X124250000Y-56250000D01*
X123750000Y-56250000D01*
X123750000Y-55500000D01*
X123475029Y-55500000D01*
X123475012Y-55500001D01*
X123372302Y-55510494D01*
X123205880Y-55565641D01*
X123205875Y-55565643D01*
X123056654Y-55657684D01*
X122932684Y-55781654D01*
X122840643Y-55930875D01*
X122840641Y-55930880D01*
X122785494Y-56097302D01*
X122785493Y-56097309D01*
X122775000Y-56200013D01*
X122515499Y-56200013D01*
X122515499Y-56082128D01*
X122509091Y-56022517D01*
X122496340Y-55988332D01*
X122491357Y-55918642D01*
X122496340Y-55901669D01*
X122509091Y-55867483D01*
X122515500Y-55807873D01*
X122515499Y-54812128D01*
X122509091Y-54752517D01*
X122496340Y-54718332D01*
X122491357Y-54648642D01*
X122496340Y-54631669D01*
X122509091Y-54597483D01*
X122515500Y-54537873D01*
X122515499Y-53542128D01*
X122509091Y-53482517D01*
X122496340Y-53448332D01*
X122491357Y-53378642D01*
X122496340Y-53361669D01*
X122509091Y-53327483D01*
X122515500Y-53267873D01*
X122515499Y-52272128D01*
X122509091Y-52212517D01*
X122496073Y-52177616D01*
X122491090Y-52107926D01*
X122496075Y-52090949D01*
X122508597Y-52057375D01*
X122508598Y-52057372D01*
X122514999Y-51997844D01*
X122515000Y-51997827D01*
X122515000Y-51750000D01*
X120015000Y-51750000D01*
X120015000Y-51997844D01*
X120021401Y-52057372D01*
X120021403Y-52057379D01*
X120033925Y-52090952D01*
X120038909Y-52160643D01*
X120033925Y-52177617D01*
X120020909Y-52212514D01*
X120020908Y-52212516D01*
X120014744Y-52269860D01*
X120014501Y-52272123D01*
X120014500Y-52272135D01*
X120014500Y-53267870D01*
X120014501Y-53267876D01*
X120020908Y-53327481D01*
X120033659Y-53361669D01*
X120038642Y-53431361D01*
X120033659Y-53448331D01*
X120020908Y-53482518D01*
X120014501Y-53542116D01*
X120014501Y-53542123D01*
X120014500Y-53542135D01*
X120014500Y-54537870D01*
X120014501Y-54537876D01*
X120020908Y-54597481D01*
X120033659Y-54631669D01*
X120038642Y-54701361D01*
X120033659Y-54718331D01*
X120020908Y-54752518D01*
X120014501Y-54812116D01*
X120014501Y-54812123D01*
X120014500Y-54812135D01*
X120014500Y-55807870D01*
X120014501Y-55807876D01*
X120020908Y-55867481D01*
X120033659Y-55901669D01*
X120038642Y-55971361D01*
X120033659Y-55988331D01*
X120020908Y-56022518D01*
X120015875Y-56069334D01*
X120014501Y-56082123D01*
X120014500Y-56082135D01*
X120014500Y-57077870D01*
X120014501Y-57077876D01*
X120020908Y-57137481D01*
X120033659Y-57171669D01*
X120038642Y-57241361D01*
X120033659Y-57258331D01*
X120020908Y-57292518D01*
X120015162Y-57345972D01*
X120014501Y-57352123D01*
X120014500Y-57352135D01*
X120014500Y-58347870D01*
X120014501Y-58347876D01*
X120020908Y-58407481D01*
X120033659Y-58441669D01*
X120038642Y-58511361D01*
X120033659Y-58528331D01*
X120020908Y-58562518D01*
X120014501Y-58622116D01*
X120014501Y-58622123D01*
X120014500Y-58622135D01*
X120014500Y-59617870D01*
X120014501Y-59617876D01*
X120020908Y-59677481D01*
X120033659Y-59711669D01*
X120038642Y-59781361D01*
X120033659Y-59798331D01*
X120020908Y-59832518D01*
X120016859Y-59870184D01*
X120014501Y-59892123D01*
X120014500Y-59892135D01*
X120014500Y-60887870D01*
X120014501Y-60887876D01*
X120020908Y-60947481D01*
X120033659Y-60981669D01*
X120038642Y-61051361D01*
X120033659Y-61068331D01*
X120020908Y-61102518D01*
X120016032Y-61147876D01*
X120014501Y-61162123D01*
X120014500Y-61162135D01*
X120014500Y-62157870D01*
X120014501Y-62157876D01*
X120020908Y-62217481D01*
X120033659Y-62251669D01*
X120038642Y-62321361D01*
X120033659Y-62338331D01*
X120020909Y-62372517D01*
X120016925Y-62409576D01*
X120014501Y-62432123D01*
X120014500Y-62432135D01*
X120014500Y-63427870D01*
X120014501Y-63427876D01*
X120020908Y-63487481D01*
X120033659Y-63521669D01*
X120038642Y-63591361D01*
X120033659Y-63608331D01*
X120020908Y-63642518D01*
X120014501Y-63702116D01*
X120014501Y-63702123D01*
X120014500Y-63702135D01*
X120014500Y-64697870D01*
X120014501Y-64697876D01*
X120020908Y-64757481D01*
X120033659Y-64791669D01*
X120038642Y-64861361D01*
X120033659Y-64878331D01*
X120020908Y-64912518D01*
X120014797Y-64969360D01*
X120014501Y-64972123D01*
X120014500Y-64972135D01*
X120014500Y-65967870D01*
X120014501Y-65967876D01*
X120020908Y-66027481D01*
X120033659Y-66061669D01*
X120038642Y-66131361D01*
X120033659Y-66148331D01*
X120020908Y-66182518D01*
X120015775Y-66230264D01*
X120014501Y-66242123D01*
X120014500Y-66242135D01*
X120014500Y-67237870D01*
X120014501Y-67237876D01*
X120020908Y-67297481D01*
X120033659Y-67331669D01*
X120038642Y-67401361D01*
X120033659Y-67418331D01*
X120020908Y-67452518D01*
X120014697Y-67510292D01*
X120014501Y-67512123D01*
X120014500Y-67512135D01*
X120014500Y-67885500D01*
X119994815Y-67952539D01*
X119942011Y-67998294D01*
X119890500Y-68009500D01*
X119002129Y-68009500D01*
X119002123Y-68009501D01*
X118942518Y-68015908D01*
X118908331Y-68028659D01*
X118838639Y-68033642D01*
X118821669Y-68028659D01*
X118787480Y-68015908D01*
X118787482Y-68015908D01*
X118727883Y-68009501D01*
X118727881Y-68009500D01*
X118727873Y-68009500D01*
X118727864Y-68009500D01*
X117732129Y-68009500D01*
X117732123Y-68009501D01*
X117672518Y-68015908D01*
X117638331Y-68028659D01*
X117568639Y-68033642D01*
X117551669Y-68028659D01*
X117517480Y-68015908D01*
X117517482Y-68015908D01*
X117457883Y-68009501D01*
X117457881Y-68009500D01*
X117457873Y-68009500D01*
X117457864Y-68009500D01*
X116462129Y-68009500D01*
X116462123Y-68009501D01*
X116402518Y-68015908D01*
X116368331Y-68028659D01*
X116298639Y-68033642D01*
X116281669Y-68028659D01*
X116247480Y-68015908D01*
X116247482Y-68015908D01*
X116187883Y-68009501D01*
X116187881Y-68009500D01*
X116187873Y-68009500D01*
X116187864Y-68009500D01*
X115192129Y-68009500D01*
X115192123Y-68009501D01*
X115132518Y-68015908D01*
X115098331Y-68028659D01*
X115028639Y-68033642D01*
X115011669Y-68028659D01*
X114977480Y-68015908D01*
X114977482Y-68015908D01*
X114917883Y-68009501D01*
X114917881Y-68009500D01*
X114917873Y-68009500D01*
X114917864Y-68009500D01*
X113922129Y-68009500D01*
X113922123Y-68009501D01*
X113887753Y-68013196D01*
X113818994Y-68000789D01*
X113767857Y-67953178D01*
X113750500Y-67889906D01*
X113750500Y-67304604D01*
X113759939Y-67257151D01*
X113769737Y-67233497D01*
X113800500Y-67078842D01*
X113800500Y-66921158D01*
X113800500Y-66921155D01*
X113800499Y-66921153D01*
X113779421Y-66815187D01*
X113769737Y-66766503D01*
X113767043Y-66760000D01*
X113709397Y-66620827D01*
X113709390Y-66620814D01*
X113621789Y-66489711D01*
X113621786Y-66489707D01*
X113510292Y-66378213D01*
X113510288Y-66378210D01*
X113379185Y-66290609D01*
X113379172Y-66290602D01*
X113233501Y-66230264D01*
X113233489Y-66230261D01*
X113078845Y-66199500D01*
X113078842Y-66199500D01*
X112921158Y-66199500D01*
X112921155Y-66199500D01*
X112766510Y-66230261D01*
X112766498Y-66230264D01*
X112620827Y-66290602D01*
X112620814Y-66290609D01*
X112489711Y-66378210D01*
X112489707Y-66378213D01*
X112378213Y-66489707D01*
X112378210Y-66489711D01*
X112290609Y-66620814D01*
X112290602Y-66620827D01*
X112230264Y-66766498D01*
X112230261Y-66766510D01*
X112199500Y-66921153D01*
X112199500Y-67078846D01*
X112230261Y-67233489D01*
X112230264Y-67233501D01*
X112290602Y-67379172D01*
X112290609Y-67379185D01*
X112378210Y-67510288D01*
X112378213Y-67510292D01*
X112489706Y-67621785D01*
X112489709Y-67621787D01*
X112489711Y-67621789D01*
X112494386Y-67624913D01*
X112499477Y-67631004D01*
X112506703Y-67634304D01*
X112521565Y-67657431D01*
X112539193Y-67678521D01*
X112541145Y-67687898D01*
X112544477Y-67693082D01*
X112549500Y-67728017D01*
X112549500Y-67889906D01*
X112529815Y-67956945D01*
X112477011Y-68002700D01*
X112412247Y-68013195D01*
X112377873Y-68009500D01*
X112377865Y-68009500D01*
X111382129Y-68009500D01*
X111382123Y-68009501D01*
X111322518Y-68015908D01*
X111288331Y-68028659D01*
X111218639Y-68033642D01*
X111201669Y-68028659D01*
X111167480Y-68015908D01*
X111167482Y-68015908D01*
X111107883Y-68009501D01*
X111107881Y-68009500D01*
X111107873Y-68009500D01*
X111107864Y-68009500D01*
X110112129Y-68009500D01*
X110112123Y-68009501D01*
X110052518Y-68015908D01*
X110018331Y-68028659D01*
X109948639Y-68033642D01*
X109931669Y-68028659D01*
X109897480Y-68015908D01*
X109897482Y-68015908D01*
X109837883Y-68009501D01*
X109837881Y-68009500D01*
X109837873Y-68009500D01*
X109837864Y-68009500D01*
X108842129Y-68009500D01*
X108842123Y-68009501D01*
X108782518Y-68015908D01*
X108748331Y-68028659D01*
X108678639Y-68033642D01*
X108661669Y-68028659D01*
X108627480Y-68015908D01*
X108627482Y-68015908D01*
X108567883Y-68009501D01*
X108567881Y-68009500D01*
X108567873Y-68009500D01*
X108567864Y-68009500D01*
X107572129Y-68009500D01*
X107572123Y-68009501D01*
X107512518Y-68015908D01*
X107478331Y-68028659D01*
X107408639Y-68033642D01*
X107391669Y-68028659D01*
X107357480Y-68015908D01*
X107357482Y-68015908D01*
X107297883Y-68009501D01*
X107297881Y-68009500D01*
X107297873Y-68009500D01*
X107297864Y-68009500D01*
X106302129Y-68009500D01*
X106302123Y-68009501D01*
X106242518Y-68015908D01*
X106208331Y-68028659D01*
X106138639Y-68033642D01*
X106121669Y-68028659D01*
X106087480Y-68015908D01*
X106087482Y-68015908D01*
X106027883Y-68009501D01*
X106027881Y-68009500D01*
X106027873Y-68009500D01*
X106027865Y-68009500D01*
X105139499Y-68009500D01*
X105072460Y-67989815D01*
X105026705Y-67937011D01*
X105015499Y-67885500D01*
X105015499Y-67512129D01*
X105015498Y-67512123D01*
X105015497Y-67512116D01*
X105009091Y-67452517D01*
X104996340Y-67418332D01*
X104991357Y-67348642D01*
X104996340Y-67331669D01*
X105009091Y-67297483D01*
X105015500Y-67237873D01*
X105015499Y-66242128D01*
X105009091Y-66182517D01*
X104996340Y-66148332D01*
X104991357Y-66078642D01*
X104996340Y-66061669D01*
X105009091Y-66027483D01*
X105015500Y-65967873D01*
X105015499Y-64972128D01*
X105009091Y-64912517D01*
X104996340Y-64878332D01*
X104991357Y-64808642D01*
X104996340Y-64791669D01*
X105009091Y-64757483D01*
X105015500Y-64697873D01*
X105015499Y-63702128D01*
X105009091Y-63642517D01*
X104996340Y-63608332D01*
X104991357Y-63538642D01*
X104996340Y-63521669D01*
X105009091Y-63487483D01*
X105015500Y-63427873D01*
X105015499Y-62432128D01*
X105009091Y-62372517D01*
X104996340Y-62338332D01*
X104991357Y-62268642D01*
X104996340Y-62251669D01*
X105009091Y-62217483D01*
X105015500Y-62157873D01*
X105015499Y-61162128D01*
X105009091Y-61102517D01*
X104996340Y-61068332D01*
X104991357Y-60998642D01*
X104996340Y-60981669D01*
X105009091Y-60947483D01*
X105015500Y-60887873D01*
X105015499Y-59892128D01*
X105009091Y-59832517D01*
X104996340Y-59798332D01*
X104991357Y-59728642D01*
X104996340Y-59711669D01*
X105009091Y-59677483D01*
X105015500Y-59617873D01*
X105015499Y-58622128D01*
X105009091Y-58562517D01*
X104996340Y-58528332D01*
X104991357Y-58458642D01*
X104996340Y-58441669D01*
X105009091Y-58407483D01*
X105015500Y-58347873D01*
X105015499Y-57352128D01*
X105009091Y-57292517D01*
X104996340Y-57258332D01*
X104991357Y-57188642D01*
X104996340Y-57171669D01*
X105009091Y-57137483D01*
X105015500Y-57077873D01*
X105015499Y-56082128D01*
X105009091Y-56022517D01*
X104996340Y-55988332D01*
X104991357Y-55918642D01*
X104996340Y-55901669D01*
X105009091Y-55867483D01*
X105015500Y-55807873D01*
X105015499Y-54812128D01*
X105009091Y-54752517D01*
X104996340Y-54718332D01*
X104991357Y-54648642D01*
X104996340Y-54631669D01*
X105009091Y-54597483D01*
X105015500Y-54537873D01*
X105015499Y-54341354D01*
X105032112Y-54279354D01*
X105032670Y-54278386D01*
X105059577Y-54231784D01*
X105100501Y-54079057D01*
X105100501Y-53920942D01*
X105059577Y-53768215D01*
X105032111Y-53720642D01*
X105015499Y-53658643D01*
X105015499Y-53542129D01*
X105015498Y-53542123D01*
X105015497Y-53542116D01*
X105009091Y-53482517D01*
X104996340Y-53448332D01*
X104991357Y-53378642D01*
X104996340Y-53361669D01*
X105009091Y-53327483D01*
X105015500Y-53267873D01*
X105015499Y-52272128D01*
X105009091Y-52212517D01*
X104996073Y-52177616D01*
X104991090Y-52107926D01*
X104996075Y-52090949D01*
X105008597Y-52057375D01*
X105008598Y-52057372D01*
X105014999Y-51997844D01*
X105015000Y-51997827D01*
X105015000Y-51750000D01*
X102515000Y-51750000D01*
X102515000Y-51997844D01*
X102521401Y-52057372D01*
X102521403Y-52057379D01*
X102533925Y-52090952D01*
X102535810Y-52117310D01*
X102541427Y-52143131D01*
X102538589Y-52156175D01*
X102538909Y-52160643D01*
X102533925Y-52177617D01*
X102533925Y-52177618D01*
X102520383Y-52213926D01*
X102478512Y-52269860D01*
X102466204Y-52277979D01*
X102446284Y-52289480D01*
X102446281Y-52289482D01*
X102167160Y-52568603D01*
X102105837Y-52602088D01*
X102066877Y-52604280D01*
X102024988Y-52600000D01*
X101750000Y-52600000D01*
X101750000Y-53476000D01*
X101730315Y-53543039D01*
X101677511Y-53588794D01*
X101626000Y-53600000D01*
X101500000Y-53600000D01*
X101500000Y-53726000D01*
X101480315Y-53793039D01*
X101427511Y-53838794D01*
X101376000Y-53850000D01*
X92775001Y-53850000D01*
X92775001Y-53899986D01*
X92785494Y-54002697D01*
X92840641Y-54169119D01*
X92840643Y-54169124D01*
X92932684Y-54318345D01*
X93056655Y-54442316D01*
X93056659Y-54442319D01*
X93059656Y-54444168D01*
X93061279Y-54445972D01*
X93062323Y-54446798D01*
X93062181Y-54446976D01*
X93106381Y-54496116D01*
X93117602Y-54565079D01*
X93089759Y-54629161D01*
X93059661Y-54655241D01*
X93056349Y-54657283D01*
X93056343Y-54657288D01*
X92932289Y-54781342D01*
X92840187Y-54930663D01*
X92840186Y-54930666D01*
X92785001Y-55097203D01*
X92785001Y-55097204D01*
X92785000Y-55097204D01*
X92774500Y-55199983D01*
X92774500Y-55800001D01*
X92774501Y-55800019D01*
X92785000Y-55902796D01*
X92785001Y-55902799D01*
X92840185Y-56069331D01*
X92840187Y-56069336D01*
X92857437Y-56097302D01*
X92932288Y-56218656D01*
X93056344Y-56342712D01*
X93205666Y-56434814D01*
X93372203Y-56489999D01*
X93474991Y-56500500D01*
X94525008Y-56500499D01*
X94525016Y-56500498D01*
X94525019Y-56500498D01*
X94581302Y-56494748D01*
X94627797Y-56489999D01*
X94794334Y-56434814D01*
X94943656Y-56342712D01*
X95067712Y-56218656D01*
X95104259Y-56159402D01*
X95111846Y-56152578D01*
X95116085Y-56143297D01*
X95137384Y-56129608D01*
X95156207Y-56112679D01*
X95167842Y-56110034D01*
X95174863Y-56105523D01*
X95209798Y-56100500D01*
X95290202Y-56100500D01*
X95357241Y-56120185D01*
X95395739Y-56159401D01*
X95432288Y-56218656D01*
X95556344Y-56342712D01*
X95705666Y-56434814D01*
X95872203Y-56489999D01*
X95974991Y-56500500D01*
X97025008Y-56500499D01*
X97025016Y-56500498D01*
X97025019Y-56500498D01*
X97081302Y-56494748D01*
X97127797Y-56489999D01*
X97294334Y-56434814D01*
X97443656Y-56342712D01*
X97567712Y-56218656D01*
X97604259Y-56159402D01*
X97611846Y-56152578D01*
X97616085Y-56143297D01*
X97637384Y-56129608D01*
X97656207Y-56112679D01*
X97667842Y-56110034D01*
X97674863Y-56105523D01*
X97709798Y-56100500D01*
X97790202Y-56100500D01*
X97857241Y-56120185D01*
X97895739Y-56159401D01*
X97932288Y-56218656D01*
X98056344Y-56342712D01*
X98205666Y-56434814D01*
X98372203Y-56489999D01*
X98474991Y-56500500D01*
X99525008Y-56500499D01*
X99525016Y-56500498D01*
X99525019Y-56500498D01*
X99581302Y-56494748D01*
X99627797Y-56489999D01*
X99794334Y-56434814D01*
X99943656Y-56342712D01*
X100067712Y-56218656D01*
X100104259Y-56159402D01*
X100111846Y-56152578D01*
X100116085Y-56143297D01*
X100137384Y-56129608D01*
X100156207Y-56112679D01*
X100167842Y-56110034D01*
X100174863Y-56105523D01*
X100209798Y-56100500D01*
X100290202Y-56100500D01*
X100357241Y-56120185D01*
X100395739Y-56159401D01*
X100432288Y-56218656D01*
X100556344Y-56342712D01*
X100656242Y-56404329D01*
X100702966Y-56456275D01*
X100714189Y-56525238D01*
X100689525Y-56585347D01*
X100680467Y-56597152D01*
X100680465Y-56597156D01*
X100619956Y-56743237D01*
X100619955Y-56743239D01*
X100604500Y-56860638D01*
X100604500Y-57139363D01*
X100619953Y-57256753D01*
X100619956Y-57256762D01*
X100679080Y-57399501D01*
X100680464Y-57402841D01*
X100776718Y-57528282D01*
X100902159Y-57624536D01*
X101048238Y-57685044D01*
X101165639Y-57700500D01*
X101504360Y-57700499D01*
X101579699Y-57690581D01*
X101648735Y-57701347D01*
X101664771Y-57710416D01*
X101685821Y-57724481D01*
X101685824Y-57724482D01*
X101685825Y-57724483D01*
X101831498Y-57784822D01*
X101831503Y-57784824D01*
X101986153Y-57815586D01*
X101986156Y-57815587D01*
X101986158Y-57815587D01*
X102143844Y-57815587D01*
X102143845Y-57815586D01*
X102298497Y-57784824D01*
X102343050Y-57766369D01*
X102412515Y-57758901D01*
X102474995Y-57790175D01*
X102510648Y-57850264D01*
X102514500Y-57880931D01*
X102514500Y-58347870D01*
X102514501Y-58347876D01*
X102520908Y-58407481D01*
X102533659Y-58441669D01*
X102538642Y-58511361D01*
X102533659Y-58528331D01*
X102520908Y-58562518D01*
X102514501Y-58622116D01*
X102514501Y-58622123D01*
X102514500Y-58622135D01*
X102514500Y-59617870D01*
X102514501Y-59617876D01*
X102520908Y-59677481D01*
X102533659Y-59711669D01*
X102538642Y-59781361D01*
X102533659Y-59798331D01*
X102520908Y-59832518D01*
X102516859Y-59870184D01*
X102514501Y-59892123D01*
X102514500Y-59892135D01*
X102514500Y-60887870D01*
X102514501Y-60887876D01*
X102520908Y-60947481D01*
X102533659Y-60981669D01*
X102538642Y-61051361D01*
X102533659Y-61068331D01*
X102520908Y-61102518D01*
X102516032Y-61147876D01*
X102514501Y-61162123D01*
X102514500Y-61162135D01*
X102514500Y-62157870D01*
X102514501Y-62157876D01*
X102520908Y-62217481D01*
X102533659Y-62251669D01*
X102538642Y-62321361D01*
X102533659Y-62338331D01*
X102520909Y-62372517D01*
X102516925Y-62409576D01*
X102514501Y-62432123D01*
X102514500Y-62432135D01*
X102514500Y-63427870D01*
X102514501Y-63427876D01*
X102520908Y-63487481D01*
X102533659Y-63521669D01*
X102538642Y-63591361D01*
X102533659Y-63608331D01*
X102520908Y-63642518D01*
X102514501Y-63702116D01*
X102514501Y-63702123D01*
X102514500Y-63702135D01*
X102514500Y-64697870D01*
X102514501Y-64697881D01*
X102519307Y-64742592D01*
X102513835Y-64772913D01*
X102510475Y-64803545D01*
X102507685Y-64806990D01*
X102506899Y-64811351D01*
X102485903Y-64833900D01*
X102466515Y-64857853D01*
X102461397Y-64860220D01*
X102459287Y-64862487D01*
X102434920Y-64873582D01*
X102431536Y-64874699D01*
X102298215Y-64910423D01*
X102275505Y-64923535D01*
X102264493Y-64929892D01*
X102264489Y-64929894D01*
X102161285Y-64989479D01*
X102161282Y-64989481D01*
X101519479Y-65631284D01*
X101491797Y-65679232D01*
X101480096Y-65699500D01*
X101440423Y-65768215D01*
X101399499Y-65920943D01*
X101399499Y-65920945D01*
X101399499Y-66089046D01*
X101399500Y-66089059D01*
X101399500Y-66750903D01*
X101379815Y-66817942D01*
X101327011Y-66863697D01*
X101257853Y-66873641D01*
X101194297Y-66844616D01*
X101187819Y-66838584D01*
X99487590Y-65138355D01*
X99487588Y-65138352D01*
X99368717Y-65019481D01*
X99368716Y-65019480D01*
X99281904Y-64969360D01*
X99281905Y-64969358D01*
X99281892Y-64969353D01*
X99278110Y-64967169D01*
X99229899Y-64916598D01*
X99216683Y-64847990D01*
X99242656Y-64783127D01*
X99292665Y-64745228D01*
X99379179Y-64709394D01*
X99510289Y-64621789D01*
X99621789Y-64510289D01*
X99709394Y-64379179D01*
X99769737Y-64233497D01*
X99800500Y-64078842D01*
X99800500Y-63921158D01*
X99800500Y-63921155D01*
X99800499Y-63921153D01*
X99787406Y-63855331D01*
X99769737Y-63766503D01*
X99743070Y-63702123D01*
X99709397Y-63620827D01*
X99709390Y-63620814D01*
X99621789Y-63489711D01*
X99621786Y-63489707D01*
X99510292Y-63378213D01*
X99510288Y-63378210D01*
X99379185Y-63290609D01*
X99379172Y-63290602D01*
X99233501Y-63230264D01*
X99233489Y-63230261D01*
X99078845Y-63199500D01*
X99078842Y-63199500D01*
X98921158Y-63199500D01*
X98921155Y-63199500D01*
X98766510Y-63230261D01*
X98766498Y-63230264D01*
X98620827Y-63290602D01*
X98620814Y-63290609D01*
X98489711Y-63378210D01*
X98489707Y-63378213D01*
X98454742Y-63413180D01*
X98393420Y-63446666D01*
X98367060Y-63449500D01*
X97374000Y-63449500D01*
X97306961Y-63429815D01*
X97261206Y-63377011D01*
X97250000Y-63325500D01*
X97250000Y-63200000D01*
X96809167Y-63200000D01*
X96801188Y-63199572D01*
X96801183Y-63199678D01*
X96797879Y-63199500D01*
X96797873Y-63199500D01*
X96797866Y-63199500D01*
X95502129Y-63199500D01*
X95498805Y-63199679D01*
X95498799Y-63199573D01*
X95490837Y-63200000D01*
X95050000Y-63200000D01*
X95050000Y-63347844D01*
X95056401Y-63407372D01*
X95056403Y-63407383D01*
X95074519Y-63455953D01*
X95079503Y-63525644D01*
X95074520Y-63542616D01*
X95055908Y-63592517D01*
X95049501Y-63652116D01*
X95049500Y-63652135D01*
X95049500Y-64447870D01*
X95049501Y-64447876D01*
X95055908Y-64507482D01*
X95074253Y-64556666D01*
X95079237Y-64626358D01*
X95074253Y-64643331D01*
X95055909Y-64692514D01*
X95055908Y-64692516D01*
X95049501Y-64752116D01*
X95049500Y-64752135D01*
X95049500Y-65547870D01*
X95049501Y-65547876D01*
X95055908Y-65607482D01*
X95074253Y-65656666D01*
X95079237Y-65726358D01*
X95074253Y-65743331D01*
X95055909Y-65792514D01*
X95055908Y-65792516D01*
X95049501Y-65852116D01*
X95049500Y-65852135D01*
X95049500Y-66647870D01*
X95049501Y-66647876D01*
X95055908Y-66707482D01*
X95069004Y-66742593D01*
X95071580Y-66749501D01*
X95074253Y-66756666D01*
X95079237Y-66826358D01*
X95074253Y-66843331D01*
X95055909Y-66892514D01*
X95055908Y-66892516D01*
X95049501Y-66952116D01*
X95049500Y-66952135D01*
X95049500Y-67750903D01*
X95029815Y-67817942D01*
X94977011Y-67863697D01*
X94907853Y-67873641D01*
X94844297Y-67844616D01*
X94837819Y-67838584D01*
X92486819Y-65487584D01*
X92453334Y-65426261D01*
X92450500Y-65399903D01*
X92450500Y-59966976D01*
X92470185Y-59899937D01*
X92522989Y-59854182D01*
X92550135Y-59846736D01*
X92549932Y-59845876D01*
X92557479Y-59844092D01*
X92557481Y-59844091D01*
X92557483Y-59844091D01*
X92692331Y-59793796D01*
X92807546Y-59707546D01*
X92893796Y-59592331D01*
X92944091Y-59457483D01*
X92950500Y-59397873D01*
X92950500Y-59324000D01*
X92970185Y-59256961D01*
X93022989Y-59211206D01*
X93074500Y-59200000D01*
X94933185Y-59200000D01*
X95000224Y-59219685D01*
X95045979Y-59272489D01*
X95056475Y-59337254D01*
X95055909Y-59342516D01*
X95055909Y-59342517D01*
X95049500Y-59402127D01*
X95049500Y-59402128D01*
X95049500Y-59402132D01*
X95049500Y-60197870D01*
X95049501Y-60197879D01*
X95056367Y-60261751D01*
X95056367Y-60288257D01*
X95055909Y-60292516D01*
X95055909Y-60292517D01*
X95049500Y-60352127D01*
X95049500Y-60352128D01*
X95049500Y-60352132D01*
X95049500Y-61147870D01*
X95049501Y-61147876D01*
X95055908Y-61207482D01*
X95074253Y-61256666D01*
X95079237Y-61326358D01*
X95074253Y-61343331D01*
X95055909Y-61392514D01*
X95055908Y-61392516D01*
X95049501Y-61452116D01*
X95049500Y-61452135D01*
X95049500Y-62247870D01*
X95049501Y-62247876D01*
X95055909Y-62307484D01*
X95074519Y-62357382D01*
X95079503Y-62427074D01*
X95074520Y-62444046D01*
X95056402Y-62492623D01*
X95056401Y-62492627D01*
X95050000Y-62552155D01*
X95050000Y-62700000D01*
X95490833Y-62700000D01*
X95498811Y-62700427D01*
X95498817Y-62700322D01*
X95502102Y-62700497D01*
X95502127Y-62700500D01*
X96797872Y-62700499D01*
X96797872Y-62700498D01*
X96801196Y-62700321D01*
X96801201Y-62700426D01*
X96809163Y-62700000D01*
X97250000Y-62700000D01*
X97250000Y-62574500D01*
X97269685Y-62507461D01*
X97322489Y-62461706D01*
X97374000Y-62450500D01*
X98563331Y-62450500D01*
X98563347Y-62450501D01*
X98570943Y-62450501D01*
X98729054Y-62450501D01*
X98729057Y-62450501D01*
X98881785Y-62409577D01*
X98945974Y-62372517D01*
X99018716Y-62330520D01*
X99081540Y-62267695D01*
X99088104Y-62262683D01*
X99113309Y-62253005D01*
X99137006Y-62240066D01*
X99145439Y-62240669D01*
X99153331Y-62237639D01*
X99179765Y-62243123D01*
X99206698Y-62245050D01*
X99210799Y-62246663D01*
X99266503Y-62269737D01*
X99393508Y-62295000D01*
X99421153Y-62300499D01*
X99421156Y-62300500D01*
X99421158Y-62300500D01*
X99578844Y-62300500D01*
X99578845Y-62300499D01*
X99733497Y-62269737D01*
X99856678Y-62218714D01*
X99879172Y-62209397D01*
X99879172Y-62209396D01*
X99879179Y-62209394D01*
X100010289Y-62121789D01*
X100121789Y-62010289D01*
X100209394Y-61879179D01*
X100269737Y-61733497D01*
X100300500Y-61578842D01*
X100300500Y-61421158D01*
X100300500Y-61421155D01*
X100300499Y-61421153D01*
X100269738Y-61266510D01*
X100269737Y-61266503D01*
X100269735Y-61266498D01*
X100209397Y-61120827D01*
X100209390Y-61120814D01*
X100121789Y-60989711D01*
X100121786Y-60989707D01*
X100010292Y-60878213D01*
X100010288Y-60878210D01*
X99879185Y-60790609D01*
X99879172Y-60790602D01*
X99733501Y-60730264D01*
X99733489Y-60730261D01*
X99578845Y-60699500D01*
X99578842Y-60699500D01*
X99421158Y-60699500D01*
X99421155Y-60699500D01*
X99266510Y-60730261D01*
X99266498Y-60730264D01*
X99120827Y-60790602D01*
X99120814Y-60790609D01*
X98989127Y-60878601D01*
X98928874Y-60897467D01*
X98929002Y-60898438D01*
X98923432Y-60899171D01*
X98922450Y-60899479D01*
X98920996Y-60899492D01*
X98920945Y-60899498D01*
X98768214Y-60940423D01*
X98768209Y-60940426D01*
X98631290Y-61019475D01*
X98631282Y-61019481D01*
X98437583Y-61213181D01*
X98376260Y-61246666D01*
X98349902Y-61249500D01*
X97374500Y-61249500D01*
X97307461Y-61229815D01*
X97261706Y-61177011D01*
X97250500Y-61125500D01*
X97250499Y-60352129D01*
X97250499Y-60352128D01*
X97244091Y-60292517D01*
X97244089Y-60292513D01*
X97243632Y-60288255D01*
X97243633Y-60261745D01*
X97247017Y-60230264D01*
X97250500Y-60197873D01*
X97250499Y-59402128D01*
X97244091Y-59342517D01*
X97241217Y-59334812D01*
X97193797Y-59207671D01*
X97193793Y-59207664D01*
X97107547Y-59092455D01*
X97107544Y-59092452D01*
X96992335Y-59006206D01*
X96992328Y-59006202D01*
X96857482Y-58955908D01*
X96857483Y-58955908D01*
X96797883Y-58949501D01*
X96797881Y-58949500D01*
X96797873Y-58949500D01*
X96797865Y-58949500D01*
X95824000Y-58949500D01*
X95756961Y-58929815D01*
X95711206Y-58877011D01*
X95700000Y-58825500D01*
X95700000Y-58450000D01*
X93074499Y-58450000D01*
X93007460Y-58430315D01*
X92961705Y-58377511D01*
X92950499Y-58326000D01*
X92950499Y-58302129D01*
X92950498Y-58302123D01*
X92944091Y-58242516D01*
X92893797Y-58107671D01*
X92893793Y-58107664D01*
X92807547Y-57992455D01*
X92807544Y-57992452D01*
X92692335Y-57906206D01*
X92692328Y-57906202D01*
X92557482Y-57855908D01*
X92557483Y-57855908D01*
X92497883Y-57849501D01*
X92497881Y-57849500D01*
X92497873Y-57849500D01*
X92497865Y-57849500D01*
X91750097Y-57849500D01*
X91720656Y-57840855D01*
X91690670Y-57834332D01*
X91685654Y-57830577D01*
X91683058Y-57829815D01*
X91662416Y-57813181D01*
X91586590Y-57737355D01*
X91586588Y-57737352D01*
X91467717Y-57618481D01*
X91467716Y-57618480D01*
X91365692Y-57559577D01*
X91365691Y-57559576D01*
X91330783Y-57539422D01*
X91274881Y-57524443D01*
X91178057Y-57498499D01*
X91019943Y-57498499D01*
X91012347Y-57498499D01*
X91012331Y-57498500D01*
X82171940Y-57498500D01*
X82131019Y-57509464D01*
X82131019Y-57509465D01*
X82093751Y-57519451D01*
X82019214Y-57539423D01*
X82019209Y-57539426D01*
X81882290Y-57618475D01*
X81882282Y-57618481D01*
X81770480Y-57730283D01*
X81770480Y-57730284D01*
X81770478Y-57730286D01*
X81715942Y-57784822D01*
X81687582Y-57813182D01*
X81626258Y-57846666D01*
X81599901Y-57849500D01*
X80052129Y-57849500D01*
X80052123Y-57849501D01*
X79992515Y-57855909D01*
X79867832Y-57902412D01*
X79798141Y-57907396D01*
X79736818Y-57873910D01*
X79703334Y-57812587D01*
X79700500Y-57786230D01*
X79700500Y-53300013D01*
X92775000Y-53300013D01*
X92775000Y-53350000D01*
X93750000Y-53350000D01*
X94250000Y-53350000D01*
X96250000Y-53350000D01*
X96750000Y-53350000D01*
X98750000Y-53350000D01*
X99250000Y-53350000D01*
X101250000Y-53350000D01*
X101250000Y-52600000D01*
X100975029Y-52600000D01*
X100975012Y-52600001D01*
X100872302Y-52610494D01*
X100705880Y-52665641D01*
X100705875Y-52665643D01*
X100556654Y-52757684D01*
X100432683Y-52881655D01*
X100432680Y-52881659D01*
X100355538Y-53006726D01*
X100303590Y-53053451D01*
X100234628Y-53064672D01*
X100170546Y-53036829D01*
X100144462Y-53006726D01*
X100067319Y-52881659D01*
X100067316Y-52881655D01*
X99943345Y-52757684D01*
X99794124Y-52665643D01*
X99794119Y-52665641D01*
X99627697Y-52610494D01*
X99627690Y-52610493D01*
X99524986Y-52600000D01*
X99250000Y-52600000D01*
X99250000Y-53350000D01*
X98750000Y-53350000D01*
X98750000Y-52600000D01*
X98475029Y-52600000D01*
X98475012Y-52600001D01*
X98372302Y-52610494D01*
X98205880Y-52665641D01*
X98205875Y-52665643D01*
X98056654Y-52757684D01*
X97932683Y-52881655D01*
X97932680Y-52881659D01*
X97855538Y-53006726D01*
X97803590Y-53053451D01*
X97734628Y-53064672D01*
X97670546Y-53036829D01*
X97644462Y-53006726D01*
X97567319Y-52881659D01*
X97567316Y-52881655D01*
X97443345Y-52757684D01*
X97294124Y-52665643D01*
X97294119Y-52665641D01*
X97127697Y-52610494D01*
X97127690Y-52610493D01*
X97024986Y-52600000D01*
X96750000Y-52600000D01*
X96750000Y-53350000D01*
X96250000Y-53350000D01*
X96250000Y-52600000D01*
X95975029Y-52600000D01*
X95975012Y-52600001D01*
X95872302Y-52610494D01*
X95705880Y-52665641D01*
X95705875Y-52665643D01*
X95556654Y-52757684D01*
X95432683Y-52881655D01*
X95432680Y-52881659D01*
X95355538Y-53006726D01*
X95303590Y-53053451D01*
X95234628Y-53064672D01*
X95170546Y-53036829D01*
X95144462Y-53006726D01*
X95067319Y-52881659D01*
X95067316Y-52881655D01*
X94943345Y-52757684D01*
X94794124Y-52665643D01*
X94794119Y-52665641D01*
X94627697Y-52610494D01*
X94627690Y-52610493D01*
X94524986Y-52600000D01*
X94250000Y-52600000D01*
X94250000Y-53350000D01*
X93750000Y-53350000D01*
X93750000Y-52600000D01*
X93475029Y-52600000D01*
X93475012Y-52600001D01*
X93372302Y-52610494D01*
X93205880Y-52665641D01*
X93205875Y-52665643D01*
X93056654Y-52757684D01*
X92932684Y-52881654D01*
X92840643Y-53030875D01*
X92840641Y-53030880D01*
X92785494Y-53197302D01*
X92785493Y-53197309D01*
X92775000Y-53300013D01*
X79700500Y-53300013D01*
X79700500Y-51002155D01*
X102515000Y-51002155D01*
X102515000Y-51250000D01*
X103515000Y-51250000D01*
X104015000Y-51250000D01*
X105015000Y-51250000D01*
X105015000Y-51002172D01*
X105014999Y-51002155D01*
X120015000Y-51002155D01*
X120015000Y-51250000D01*
X121015000Y-51250000D01*
X121515000Y-51250000D01*
X122515000Y-51250000D01*
X122515000Y-51002172D01*
X122514999Y-51002155D01*
X122508598Y-50942627D01*
X122508596Y-50942620D01*
X122458354Y-50807913D01*
X122458350Y-50807906D01*
X122372190Y-50692812D01*
X122372187Y-50692809D01*
X122257093Y-50606649D01*
X122257086Y-50606645D01*
X122122379Y-50556403D01*
X122122372Y-50556401D01*
X122062844Y-50550000D01*
X121515000Y-50550000D01*
X121515000Y-51250000D01*
X121015000Y-51250000D01*
X121015000Y-50550000D01*
X120467155Y-50550000D01*
X120407627Y-50556401D01*
X120407620Y-50556403D01*
X120272913Y-50606645D01*
X120272906Y-50606649D01*
X120157812Y-50692809D01*
X120157809Y-50692812D01*
X120071649Y-50807906D01*
X120071645Y-50807913D01*
X120021403Y-50942620D01*
X120021401Y-50942627D01*
X120015000Y-51002155D01*
X105014999Y-51002155D01*
X105008598Y-50942627D01*
X105008596Y-50942620D01*
X104958354Y-50807913D01*
X104958350Y-50807906D01*
X104872190Y-50692812D01*
X104872187Y-50692809D01*
X104757093Y-50606649D01*
X104757086Y-50606645D01*
X104622379Y-50556403D01*
X104622372Y-50556401D01*
X104562844Y-50550000D01*
X104015000Y-50550000D01*
X104015000Y-51250000D01*
X103515000Y-51250000D01*
X103515000Y-50550000D01*
X102967155Y-50550000D01*
X102907627Y-50556401D01*
X102907620Y-50556403D01*
X102772913Y-50606645D01*
X102772906Y-50606649D01*
X102657812Y-50692809D01*
X102657809Y-50692812D01*
X102571649Y-50807906D01*
X102571645Y-50807913D01*
X102521403Y-50942620D01*
X102521401Y-50942627D01*
X102515000Y-51002155D01*
X79700500Y-51002155D01*
X79700500Y-50324500D01*
X79720185Y-50257461D01*
X79772989Y-50211706D01*
X79824500Y-50200500D01*
X128675500Y-50200500D01*
X128742539Y-50220185D01*
G37*
%TD.AperFunction*%
%TA.AperFunction,Conductor*%
G36*
X101305703Y-79694675D02*
G01*
X101322876Y-79712902D01*
X101339903Y-79735093D01*
X101460021Y-79827263D01*
X101599891Y-79885198D01*
X101599895Y-79885199D01*
X101712302Y-79899999D01*
X101712317Y-79900000D01*
X101960127Y-79900000D01*
X101999142Y-79878696D01*
X102068834Y-79883680D01*
X102124767Y-79925552D01*
X102149184Y-79991016D01*
X102149500Y-79999862D01*
X102149500Y-80337727D01*
X102164313Y-80450235D01*
X102164313Y-80450236D01*
X102175833Y-80478047D01*
X102183302Y-80547517D01*
X102152027Y-80609996D01*
X102091938Y-80645648D01*
X102061272Y-80649500D01*
X101550097Y-80649500D01*
X101483058Y-80629815D01*
X101462416Y-80613181D01*
X101136819Y-80287584D01*
X101103334Y-80226261D01*
X101100500Y-80199903D01*
X101100500Y-79788388D01*
X101120185Y-79721349D01*
X101172989Y-79675594D01*
X101242147Y-79665650D01*
X101305703Y-79694675D01*
G37*
%TD.AperFunction*%
%TA.AperFunction,Conductor*%
G36*
X102758718Y-74120185D02*
G01*
X102804473Y-74172989D01*
X102814417Y-74242147D01*
X102785392Y-74305703D01*
X102779362Y-74312178D01*
X102173601Y-74917939D01*
X101731286Y-75360254D01*
X101619481Y-75472058D01*
X101619479Y-75472061D01*
X101604840Y-75497417D01*
X101574618Y-75549764D01*
X101540423Y-75608991D01*
X101499499Y-75761719D01*
X101499499Y-75761721D01*
X101499499Y-75929822D01*
X101499500Y-75929835D01*
X101499500Y-76080663D01*
X101479815Y-76147702D01*
X101450987Y-76179038D01*
X101339549Y-76264548D01*
X101339547Y-76264550D01*
X101322874Y-76286279D01*
X101266446Y-76327481D01*
X101196700Y-76331634D01*
X101135780Y-76297421D01*
X101103028Y-76235703D01*
X101100500Y-76210791D01*
X101100500Y-74800097D01*
X101120185Y-74733058D01*
X101136819Y-74712416D01*
X101712417Y-74136819D01*
X101773740Y-74103334D01*
X101800098Y-74100500D01*
X102691679Y-74100500D01*
X102758718Y-74120185D01*
G37*
%TD.AperFunction*%
%TA.AperFunction,Conductor*%
G36*
X106085969Y-74636830D02*
G01*
X106121639Y-74696909D01*
X106125500Y-74727610D01*
X106125500Y-75384623D01*
X106105815Y-75451662D01*
X106053011Y-75497417D01*
X105983853Y-75507361D01*
X105920297Y-75478336D01*
X105886939Y-75432076D01*
X105877699Y-75409770D01*
X105877698Y-75409767D01*
X105785451Y-75289549D01*
X105665233Y-75197302D01*
X105665229Y-75197300D01*
X105601801Y-75171027D01*
X105525236Y-75139313D01*
X105510698Y-75137399D01*
X105412727Y-75124500D01*
X105412720Y-75124500D01*
X105187280Y-75124500D01*
X105187272Y-75124500D01*
X105100393Y-75135938D01*
X105074764Y-75139313D01*
X105074762Y-75139313D01*
X105066708Y-75140374D01*
X105066316Y-75137399D01*
X105033684Y-75137399D01*
X105033292Y-75140374D01*
X105025237Y-75139313D01*
X105025236Y-75139313D01*
X104996271Y-75135499D01*
X104912727Y-75124500D01*
X104912720Y-75124500D01*
X104687280Y-75124500D01*
X104687272Y-75124500D01*
X104585265Y-75137930D01*
X104585263Y-75137930D01*
X104574764Y-75139313D01*
X104434767Y-75197302D01*
X104375486Y-75242789D01*
X104310319Y-75267984D01*
X104241874Y-75253946D01*
X104224515Y-75242790D01*
X104198512Y-75222838D01*
X104157310Y-75166410D01*
X104151120Y-75130894D01*
X104149999Y-75129911D01*
X104067270Y-75140804D01*
X104034608Y-75140766D01*
X104025937Y-75139603D01*
X104025236Y-75139313D01*
X103943484Y-75128550D01*
X103943274Y-75128522D01*
X103911525Y-75114386D01*
X103879667Y-75100293D01*
X103879582Y-75100165D01*
X103879445Y-75100104D01*
X103860345Y-75070998D01*
X103841197Y-75041968D01*
X103841195Y-75041817D01*
X103841111Y-75041689D01*
X103840777Y-75006683D01*
X103840366Y-74972103D01*
X103840446Y-74971965D01*
X103840445Y-74971822D01*
X103841668Y-74969877D01*
X103872065Y-74917944D01*
X104102194Y-74687816D01*
X104163515Y-74654334D01*
X104189873Y-74651500D01*
X105641563Y-74651500D01*
X105641579Y-74651501D01*
X105649175Y-74651501D01*
X105807286Y-74651501D01*
X105807289Y-74651501D01*
X105960017Y-74610577D01*
X105960018Y-74610575D01*
X105967867Y-74608473D01*
X105968673Y-74611482D01*
X106023481Y-74605574D01*
X106085969Y-74636830D01*
G37*
%TD.AperFunction*%
%TA.AperFunction,Conductor*%
G36*
X87593039Y-58719185D02*
G01*
X87638794Y-58771989D01*
X87650000Y-58823500D01*
X87650000Y-59200000D01*
X90625501Y-59200000D01*
X90692540Y-59219685D01*
X90738295Y-59272489D01*
X90749501Y-59324000D01*
X90749501Y-59397876D01*
X90755908Y-59457483D01*
X90806202Y-59592328D01*
X90806206Y-59592335D01*
X90892452Y-59707544D01*
X90892455Y-59707547D01*
X91007664Y-59793793D01*
X91007671Y-59793797D01*
X91142517Y-59844091D01*
X91143138Y-59844238D01*
X91143147Y-59844237D01*
X91143161Y-59844243D01*
X91150062Y-59845874D01*
X91149737Y-59847246D01*
X91172984Y-59857863D01*
X91203287Y-59870408D01*
X91204603Y-59872303D01*
X91206703Y-59873262D01*
X91224437Y-59900856D01*
X91243147Y-59927793D01*
X91243619Y-59930705D01*
X91244477Y-59932040D01*
X91249500Y-59966975D01*
X91249500Y-60126000D01*
X91229815Y-60193039D01*
X91177011Y-60238794D01*
X91125500Y-60250000D01*
X89974000Y-60250000D01*
X89906961Y-60230315D01*
X89861206Y-60177511D01*
X89850000Y-60126000D01*
X89850000Y-59550000D01*
X86671686Y-59550000D01*
X86604647Y-59530315D01*
X86558892Y-59477511D01*
X86548397Y-59412743D01*
X86549999Y-59397841D01*
X86550000Y-59397827D01*
X86550000Y-59100000D01*
X84750000Y-59100000D01*
X84750000Y-59397841D01*
X84751603Y-59412743D01*
X84739199Y-59481503D01*
X84691589Y-59532641D01*
X84628314Y-59550000D01*
X83522190Y-59550000D01*
X83455151Y-59530315D01*
X83409396Y-59477511D01*
X83398901Y-59412744D01*
X83400042Y-59402129D01*
X83400500Y-59397873D01*
X83400499Y-58823499D01*
X83420183Y-58756461D01*
X83472987Y-58710706D01*
X83524499Y-58699500D01*
X87526000Y-58699500D01*
X87593039Y-58719185D01*
G37*
%TD.AperFunction*%
%TD*%
M02*
