%TF.GenerationSoftware,KiCad,Pcbnew,9.0.7*%
%TF.CreationDate,2026-03-29T20:21:10+05:30*%
%TF.ProjectId,reciever pcb v1,72656369-6576-4657-9220-706362207631,rev?*%
%TF.SameCoordinates,Original*%
%TF.FileFunction,Soldermask,Top*%
%TF.FilePolarity,Negative*%
%FSLAX46Y46*%
G04 Gerber Fmt 4.6, Leading zero omitted, Abs format (unit mm)*
G04 Created by KiCad (PCBNEW 9.0.7) date 2026-03-29 20:21:10*
%MOMM*%
%LPD*%
G01*
G04 APERTURE LIST*
G04 Aperture macros list*
%AMRoundRect*
0 Rectangle with rounded corners*
0 $1 Rounding radius*
0 $2 $3 $4 $5 $6 $7 $8 $9 X,Y pos of 4 corners*
0 Add a 4 corners polygon primitive as box body*
4,1,4,$2,$3,$4,$5,$6,$7,$8,$9,$2,$3,0*
0 Add four circle primitives for the rounded corners*
1,1,$1+$1,$2,$3*
1,1,$1+$1,$4,$5*
1,1,$1+$1,$6,$7*
1,1,$1+$1,$8,$9*
0 Add four rect primitives between the rounded corners*
20,1,$1+$1,$2,$3,$4,$5,0*
20,1,$1+$1,$4,$5,$6,$7,0*
20,1,$1+$1,$6,$7,$8,$9,0*
20,1,$1+$1,$8,$9,$2,$3,0*%
G04 Aperture macros list end*
%ADD10RoundRect,0.250000X0.750000X-0.600000X0.750000X0.600000X-0.750000X0.600000X-0.750000X-0.600000X0*%
%ADD11O,2.000000X1.700000*%
%ADD12C,1.100000*%
%ADD13R,1.300000X0.400000*%
%ADD14O,1.100000X1.600000*%
%ADD15RoundRect,0.250000X0.450000X-0.262500X0.450000X0.262500X-0.450000X0.262500X-0.450000X-0.262500X0*%
%ADD16RoundRect,0.250000X0.475000X-0.250000X0.475000X0.250000X-0.475000X0.250000X-0.475000X-0.250000X0*%
%ADD17RoundRect,0.250000X0.262500X0.450000X-0.262500X0.450000X-0.262500X-0.450000X0.262500X-0.450000X0*%
%ADD18RoundRect,0.250000X-0.250000X-0.475000X0.250000X-0.475000X0.250000X0.475000X-0.250000X0.475000X0*%
%ADD19RoundRect,0.150000X0.150000X-0.825000X0.150000X0.825000X-0.150000X0.825000X-0.150000X-0.825000X0*%
%ADD20R,3.300000X2.410000*%
%ADD21RoundRect,0.150000X-0.150000X0.512500X-0.150000X-0.512500X0.150000X-0.512500X0.150000X0.512500X0*%
%ADD22RoundRect,0.243750X-0.243750X-0.456250X0.243750X-0.456250X0.243750X0.456250X-0.243750X0.456250X0*%
%ADD23R,1.500000X0.900000*%
%ADD24R,0.900000X1.500000*%
%ADD25C,0.600000*%
%ADD26R,3.900000X3.900000*%
%ADD27RoundRect,0.250000X-0.450000X0.262500X-0.450000X-0.262500X0.450000X-0.262500X0.450000X0.262500X0*%
%ADD28C,2.000000*%
%ADD29RoundRect,0.250000X-0.262500X-0.450000X0.262500X-0.450000X0.262500X0.450000X-0.262500X0.450000X0*%
%ADD30RoundRect,0.250000X-0.475000X0.250000X-0.475000X-0.250000X0.475000X-0.250000X0.475000X0.250000X0*%
%ADD31R,1.700000X1.700000*%
%ADD32C,1.700000*%
G04 APERTURE END LIST*
D10*
%TO.C,J3*%
X142055000Y-98250000D03*
D11*
X142055000Y-95750000D03*
%TD*%
D12*
%TO.C,J2*%
X104300000Y-90900000D03*
X104300000Y-95900000D03*
D13*
X106550000Y-92100000D03*
X106550000Y-92750000D03*
X106550000Y-93400000D03*
X106550000Y-94050000D03*
X106550000Y-94700000D03*
D14*
X106500000Y-90850000D03*
X106500000Y-95950000D03*
%TD*%
D15*
%TO.C,R9*%
X145000000Y-83675000D03*
X145000000Y-81850000D03*
%TD*%
D16*
%TO.C,C6*%
X128000000Y-62900000D03*
X128000000Y-61000000D03*
%TD*%
D17*
%TO.C,R2*%
X110200000Y-79000000D03*
X108375000Y-79000000D03*
%TD*%
D18*
%TO.C,C7*%
X104000000Y-63000000D03*
X105900000Y-63000000D03*
%TD*%
D19*
%TO.C,U2*%
X109000000Y-90900000D03*
X110270000Y-90900000D03*
X111540000Y-90900000D03*
X112810000Y-90900000D03*
X112810000Y-85950000D03*
X111540000Y-85950000D03*
X110270000Y-85950000D03*
X109000000Y-85950000D03*
D20*
X110905000Y-88425000D03*
%TD*%
D21*
%TO.C,U3*%
X110450000Y-96725000D03*
X109500000Y-96725000D03*
X108550000Y-96725000D03*
X108550000Y-99000000D03*
X110450000Y-99000000D03*
%TD*%
D16*
%TO.C,C2*%
X104500000Y-86850000D03*
X104500000Y-84950000D03*
%TD*%
D22*
%TO.C,D2*%
X104212500Y-83000000D03*
X106087500Y-83000000D03*
%TD*%
D23*
%TO.C,U1*%
X131500000Y-59500000D03*
X131500000Y-60770000D03*
X131500000Y-62040000D03*
X131500000Y-63310000D03*
X131500000Y-64580000D03*
X131500000Y-65850000D03*
X131500000Y-67120000D03*
X131500000Y-68390000D03*
X131500000Y-69660000D03*
X131500000Y-70930000D03*
X131500000Y-72200000D03*
X131500000Y-73470000D03*
X131500000Y-74740000D03*
X131500000Y-76010000D03*
D24*
X133265000Y-77260000D03*
X134535000Y-77260000D03*
X135805000Y-77260000D03*
X137075000Y-77260000D03*
X138345000Y-77260000D03*
X139615000Y-77260000D03*
X140885000Y-77260000D03*
X142155000Y-77260000D03*
X143425000Y-77260000D03*
X144695000Y-77260000D03*
X145965000Y-77260000D03*
X147235000Y-77260000D03*
D23*
X149000000Y-76010000D03*
X149000000Y-74740000D03*
X149000000Y-73470000D03*
X149000000Y-72200000D03*
X149000000Y-70930000D03*
X149000000Y-69660000D03*
X149000000Y-68390000D03*
X149000000Y-67120000D03*
X149000000Y-65850000D03*
X149000000Y-64580000D03*
X149000000Y-63310000D03*
X149000000Y-62040000D03*
X149000000Y-60770000D03*
X149000000Y-59500000D03*
D25*
X137350000Y-66520000D03*
X137350000Y-67920000D03*
X138050000Y-65820000D03*
X138050000Y-67220000D03*
X138050000Y-68620000D03*
X138750000Y-66520000D03*
D26*
X138750000Y-67220000D03*
D25*
X138750000Y-67920000D03*
X139450000Y-65820000D03*
X139450000Y-67220000D03*
X139450000Y-68620000D03*
X140150000Y-66520000D03*
X140150000Y-67920000D03*
%TD*%
D27*
%TO.C,R7*%
X138715000Y-104112500D03*
X138715000Y-105937500D03*
%TD*%
D28*
%TO.C,SW2*%
X111000000Y-75500000D03*
X104500000Y-75500000D03*
X111000000Y-71000000D03*
X104500000Y-71000000D03*
%TD*%
D29*
%TO.C,Re*%
X108750000Y-63250000D03*
X110575000Y-63250000D03*
%TD*%
D15*
%TO.C,R3*%
X117000000Y-90950000D03*
X117000000Y-89125000D03*
%TD*%
%TO.C,R6*%
X129000000Y-72825000D03*
X129000000Y-71000000D03*
%TD*%
D17*
%TO.C,R1*%
X110412500Y-83000000D03*
X108587500Y-83000000D03*
%TD*%
D30*
%TO.C,C3*%
X117000000Y-85550000D03*
X117000000Y-87450000D03*
%TD*%
D22*
%TO.C,D3*%
X104000000Y-79000000D03*
X105875000Y-79000000D03*
%TD*%
D16*
%TO.C,C5*%
X126000000Y-62900000D03*
X126000000Y-61000000D03*
%TD*%
D28*
%TO.C,SW1*%
X104500000Y-55500000D03*
X111000000Y-55500000D03*
X104500000Y-60000000D03*
X111000000Y-60000000D03*
%TD*%
D16*
%TO.C,C8*%
X112500000Y-97000000D03*
X112500000Y-95100000D03*
%TD*%
%TO.C,C1*%
X107000000Y-86900000D03*
X107000000Y-85000000D03*
%TD*%
D31*
%TO.C,J1*%
X135375000Y-105025000D03*
D32*
X132835000Y-105025000D03*
X130295000Y-105025000D03*
X127755000Y-105025000D03*
X125215000Y-105025000D03*
X122675000Y-105025000D03*
X120135000Y-105025000D03*
X117595000Y-105025000D03*
%TD*%
D16*
%TO.C,C4*%
X124000000Y-63000000D03*
X124000000Y-61100000D03*
%TD*%
D15*
%TO.C,R8*%
X145000000Y-87412500D03*
X145000000Y-85587500D03*
%TD*%
%TO.C,R5*%
X115000000Y-74325000D03*
X115000000Y-72500000D03*
%TD*%
M02*
