M48
; DRILL file {KiCad 9.0.7} date 2026-03-30T10:32:30+0530
; FORMAT={-:-/ absolute / metric / decimal}
; #@! TF.CreationDate,2026-03-30T10:32:30+05:30
; #@! TF.GenerationSoftware,Kicad,Pcbnew,9.0.7
; #@! TF.FileFunction,Plated,1,2,PTH
FMAT,2
METRIC
; #@! TA.AperFunction,Plated,PTH,ComponentDrill
T1C0.200
; #@! TA.AperFunction,Plated,PTH,ViaDrill
T2C0.300
; #@! TA.AperFunction,Plated,PTH,ComponentDrill
T3C0.600
; #@! TA.AperFunction,Plated,PTH,ComponentDrill
T4C1.000
; #@! TA.AperFunction,Plated,PTH,ComponentDrill
T5C1.100
%
G90
G05
T1
X109.705Y-87.725
X109.705Y-89.125
X110.905Y-87.725
X110.905Y-89.125
X112.105Y-87.725
X112.105Y-89.125
X137.35Y-66.52
X137.35Y-67.92
X138.05Y-65.82
X138.05Y-67.22
X138.05Y-68.62
X138.75Y-66.52
X138.75Y-67.92
X139.45Y-65.82
X139.45Y-67.22
X139.45Y-68.62
X140.15Y-66.52
X140.15Y-67.92
T2
X104.0Y-61.5
X105.0Y-94.5
X108.0Y-92.25
X108.5Y-95.0
X108.99Y-84.187
X110.5Y-95.0
X114.0Y-91.0
X114.0Y-97.0
X115.0Y-71.5
X116.5Y-74.325
X118.5Y-85.55
X125.0Y-92.0
X128.0Y-78.5
X129.874Y-62.874
X133.0Y-73.47
X133.5Y-76.0
X134.0Y-80.5
X137.075Y-78.5
X145.0Y-80.5
T4
X117.595Y-105.025
X120.135Y-105.025
X122.675Y-105.025
X125.215Y-105.025
X127.755Y-105.025
X130.295Y-105.025
X132.835Y-105.025
X135.375Y-105.025
X142.055Y-95.75
X142.055Y-98.25
T5
X104.5Y-55.5
X104.5Y-60.0
X104.5Y-71.0
X104.5Y-75.5
X111.0Y-55.5
X111.0Y-60.0
X111.0Y-71.0
X111.0Y-75.5
T3
G00X106.5Y-90.6
M15
G01X106.5Y-91.1
M16
G05
G00X106.5Y-95.7
M15
G01X106.5Y-96.2
M16
G05
M30
