%TF.GenerationSoftware,KiCad,Pcbnew,9.0.7*%
%TF.CreationDate,2026-03-29T20:21:10+05:30*%
%TF.ProjectId,reciever pcb v1,72656369-6576-4657-9220-706362207631,rev?*%
%TF.SameCoordinates,Original*%
%TF.FileFunction,Copper,L2,Bot*%
%TF.FilePolarity,Positive*%
%FSLAX46Y46*%
G04 Gerber Fmt 4.6, Leading zero omitted, Abs format (unit mm)*
G04 Created by KiCad (PCBNEW 9.0.7) date 2026-03-29 20:21:10*
%MOMM*%
%LPD*%
G01*
G04 APERTURE LIST*
G04 Aperture macros list*
%AMRoundRect*
0 Rectangle with rounded corners*
0 $1 Rounding radius*
0 $2 $3 $4 $5 $6 $7 $8 $9 X,Y pos of 4 corners*
0 Add a 4 corners polygon primitive as box body*
4,1,4,$2,$3,$4,$5,$6,$7,$8,$9,$2,$3,0*
0 Add four circle primitives for the rounded corners*
1,1,$1+$1,$2,$3*
1,1,$1+$1,$4,$5*
1,1,$1+$1,$6,$7*
1,1,$1+$1,$8,$9*
0 Add four rect primitives between the rounded corners*
20,1,$1+$1,$2,$3,$4,$5,0*
20,1,$1+$1,$4,$5,$6,$7,0*
20,1,$1+$1,$6,$7,$8,$9,0*
20,1,$1+$1,$8,$9,$2,$3,0*%
G04 Aperture macros list end*
%TA.AperFunction,ComponentPad*%
%ADD10RoundRect,0.250000X0.750000X-0.600000X0.750000X0.600000X-0.750000X0.600000X-0.750000X-0.600000X0*%
%TD*%
%TA.AperFunction,ComponentPad*%
%ADD11O,2.000000X1.700000*%
%TD*%
%TA.AperFunction,HeatsinkPad*%
%ADD12O,1.100000X1.600000*%
%TD*%
%TA.AperFunction,HeatsinkPad*%
%ADD13C,0.500000*%
%TD*%
%TA.AperFunction,HeatsinkPad*%
%ADD14R,2.900000X1.900000*%
%TD*%
%TA.AperFunction,HeatsinkPad*%
%ADD15C,0.600000*%
%TD*%
%TA.AperFunction,ComponentPad*%
%ADD16C,2.000000*%
%TD*%
%TA.AperFunction,ComponentPad*%
%ADD17R,1.700000X1.700000*%
%TD*%
%TA.AperFunction,ComponentPad*%
%ADD18C,1.700000*%
%TD*%
%TA.AperFunction,ViaPad*%
%ADD19C,0.600000*%
%TD*%
%TA.AperFunction,Conductor*%
%ADD20C,0.200000*%
%TD*%
G04 APERTURE END LIST*
D10*
%TO.P,J3,1,Pin_1*%
%TO.N,GND*%
X142055000Y-98250000D03*
D11*
%TO.P,J3,2,Pin_2*%
%TO.N,BAt*%
X142055000Y-95750000D03*
%TD*%
D12*
%TO.P,J2,6,Shield*%
%TO.N,GND*%
X106500000Y-90850000D03*
X106500000Y-95950000D03*
%TD*%
D13*
%TO.P,U2,9,EPAD*%
%TO.N,GND*%
X109705000Y-89125000D03*
X110905000Y-89125000D03*
X112105000Y-89125000D03*
D14*
X110905000Y-88425000D03*
D13*
X109705000Y-87725000D03*
X110905000Y-87725000D03*
X112105000Y-87725000D03*
%TD*%
D15*
%TO.P,U1,41,GND*%
%TO.N,GND*%
X137350000Y-66520000D03*
X137350000Y-67920000D03*
X138050000Y-65820000D03*
X138050000Y-67220000D03*
X138050000Y-68620000D03*
X138750000Y-66520000D03*
X138750000Y-67920000D03*
X139450000Y-65820000D03*
X139450000Y-67220000D03*
X139450000Y-68620000D03*
X140150000Y-66520000D03*
X140150000Y-67920000D03*
%TD*%
D16*
%TO.P,SW2,1,1*%
%TO.N,IO0*%
X111000000Y-75500000D03*
X104500000Y-75500000D03*
%TO.P,SW2,2,2*%
%TO.N,GND*%
X111000000Y-71000000D03*
X104500000Y-71000000D03*
%TD*%
%TO.P,SW1,1,1*%
%TO.N,Net-(C7-Pad1)*%
X104500000Y-55500000D03*
X111000000Y-55500000D03*
%TO.P,SW1,2,2*%
%TO.N,EN*%
X104500000Y-60000000D03*
X111000000Y-60000000D03*
%TD*%
D17*
%TO.P,J1,1,Pin_1*%
%TO.N,LED*%
X135375000Y-105025000D03*
D18*
%TO.P,J1,2,Pin_2*%
%TO.N,SCK*%
X132835000Y-105025000D03*
%TO.P,J1,3,Pin_3*%
%TO.N,SDA*%
X130295000Y-105025000D03*
%TO.P,J1,4,Pin_4*%
%TO.N,A0*%
X127755000Y-105025000D03*
%TO.P,J1,5,Pin_5*%
%TO.N,RESET*%
X125215000Y-105025000D03*
%TO.P,J1,6,Pin_6*%
%TO.N,CS*%
X122675000Y-105025000D03*
%TO.P,J1,7,Pin_7*%
%TO.N,GND*%
X120135000Y-105025000D03*
%TO.P,J1,8,Pin_8*%
%TO.N,3v3*%
X117595000Y-105025000D03*
%TD*%
D19*
%TO.N,IO0*%
X116500000Y-74325000D03*
X133500000Y-76000000D03*
%TO.N,RESET*%
X125000000Y-92000000D03*
X133000000Y-73470000D03*
X128000000Y-78500000D03*
%TO.N,GND*%
X145000000Y-80500000D03*
X105000000Y-94500000D03*
%TO.N,EN*%
X129874265Y-62874265D03*
%TO.N,CS*%
X134000000Y-80500000D03*
X137075000Y-78500000D03*
%TO.N,3v3*%
X115000000Y-71500000D03*
X114000000Y-97000000D03*
%TO.N,BAt*%
X118500000Y-85550000D03*
%TO.N,/5V*%
X108500000Y-95000000D03*
X108989709Y-84186904D03*
X114000000Y-91000000D03*
X108000000Y-92250000D03*
X110500000Y-95000000D03*
%TO.N,Net-(C7-Pad1)*%
X104000000Y-61500000D03*
%TD*%
D20*
%TO.N,IO0*%
X116500000Y-74325000D02*
X116500000Y-75225000D01*
X117275000Y-76000000D02*
X133500000Y-76000000D01*
X111000000Y-75500000D02*
X104500000Y-75500000D01*
X116500000Y-75225000D02*
X117275000Y-76000000D01*
%TO.N,RESET*%
X133000000Y-74650057D02*
X134101000Y-75751057D01*
X125215000Y-105025000D02*
X125000000Y-104810000D01*
X131849943Y-78500000D02*
X128000000Y-78500000D01*
X134101000Y-76248943D02*
X131849943Y-78500000D01*
X125000000Y-104810000D02*
X125000000Y-92000000D01*
X133000000Y-73470000D02*
X133000000Y-74650057D01*
X134101000Y-75751057D02*
X134101000Y-76248943D01*
%TO.N,GND*%
X109180000Y-90850000D02*
X110905000Y-89125000D01*
X145000000Y-80500000D02*
X145000000Y-74170000D01*
X105000000Y-94500000D02*
X105201000Y-94299000D01*
X104500000Y-71000000D02*
X111000000Y-71000000D01*
X145000000Y-74170000D02*
X139450000Y-68620000D01*
X105201000Y-91000000D02*
X106350000Y-91000000D01*
X105201000Y-94299000D02*
X105201000Y-91000000D01*
X106350000Y-91000000D02*
X106500000Y-90850000D01*
X106500000Y-90850000D02*
X109180000Y-90850000D01*
%TO.N,EN*%
X129874265Y-62874265D02*
X129000000Y-62000000D01*
X129000000Y-62000000D02*
X113000000Y-62000000D01*
X113000000Y-62000000D02*
X111000000Y-60000000D01*
%TO.N,CS*%
X137075000Y-78500000D02*
X136000000Y-78500000D01*
X136000000Y-78500000D02*
X134000000Y-80500000D01*
%TO.N,3v3*%
X115000000Y-71500000D02*
X115000000Y-94500000D01*
X115000000Y-94500000D02*
X114000000Y-95500000D01*
X114000000Y-95500000D02*
X114000000Y-97000000D01*
%TO.N,BAt*%
X128000000Y-93000000D02*
X136500000Y-93000000D01*
X118500000Y-85550000D02*
X120550000Y-85550000D01*
X120550000Y-85550000D02*
X128000000Y-93000000D01*
X139250000Y-95750000D02*
X142055000Y-95750000D01*
X136500000Y-93000000D02*
X139250000Y-95750000D01*
%TO.N,/5V*%
X110752805Y-85950000D02*
X108989709Y-84186904D01*
X113000000Y-87518000D02*
X111432000Y-85950000D01*
X113000000Y-90000000D02*
X113000000Y-87518000D01*
X111432000Y-85950000D02*
X110752805Y-85950000D01*
X108500000Y-95000000D02*
X108500000Y-93150000D01*
X110450000Y-95000000D02*
X110500000Y-95000000D01*
X113000000Y-92450000D02*
X110450000Y-95000000D01*
X114000000Y-91000000D02*
X113000000Y-92000000D01*
X113000000Y-92000000D02*
X113000000Y-92450000D01*
X108500000Y-93150000D02*
X108000000Y-92650000D01*
X114000000Y-91000000D02*
X113000000Y-90000000D01*
X108000000Y-92650000D02*
X108000000Y-92250000D01*
%TO.N,Net-(C7-Pad1)*%
X105801000Y-56801000D02*
X104500000Y-55500000D01*
X105500000Y-61500000D02*
X105801000Y-61199000D01*
X105801000Y-61199000D02*
X105801000Y-56801000D01*
X104000000Y-61500000D02*
X105500000Y-61500000D01*
%TD*%
M02*
